<svg xmlns="http://www.w3.org/2000/svg" xmlns:xlink="http://www.w3.org/1999/xlink" width="500" zoomAndPan="magnify" viewBox="0 0 375 374.999991" height="500" preserveAspectRatio="xMidYMid meet" version="1.0"><defs><g/><clipPath id="4f65a2d729"><path d="M 85 87 L 286 87 L 286 288 L 85 288 Z M 85 87 " clip-rule="nonzero"/></clipPath><clipPath id="3ef7438767"><path d="M 44.382812 181.109375 L 159.160156 76.566406 L 294.003906 224.609375 L 179.230469 329.152344 Z M 44.382812 181.109375 " clip-rule="nonzero"/></clipPath><clipPath id="d2bbca413f"><path d="M 44.382812 181.109375 L 192.425781 46.265625 L 327.273438 194.308594 L 179.230469 329.152344 Z M 44.382812 181.109375 " clip-rule="nonzero"/></clipPath></defs><g clip-path="url(#4f65a2d729)"><g clip-path="url(#3ef7438767)"><g clip-path="url(#d2bbca413f)"><path fill="#69574e" d="M 253.25 261.730469 C 212.445312 298.898438 148.972656 295.933594 111.804688 255.132812 C 74.640625 214.328125 77.601562 150.851562 118.40625 113.6875 C 159.207031 76.523438 222.683594 79.484375 259.847656 120.285156 C 297.015625 161.089844 294.054688 224.566406 253.25 261.730469 Z M 119.402344 114.78125 C 79.179688 151.414062 76.265625 213.917969 112.898438 254.136719 C 149.535156 294.355469 212.035156 297.269531 252.253906 260.636719 C 292.472656 224.003906 295.390625 161.503906 258.753906 121.28125 C 222.121094 81.0625 159.621094 78.148438 119.402344 114.78125 Z M 119.402344 114.78125 " fill-opacity="1" fill-rule="nonzero"/></g></g></g><g fill="#604e45" fill-opacity="1"><g transform="translate(137.313592, 229.309307)"><g><path d="M 96.03125 -0.261719 L 77.578125 -0.261719 C 82.125 -1.949219 85.113281 -6.105469 85.113281 -10.914062 C 85.113281 -12.605469 84.722656 -14.164062 84.074219 -15.722656 L 50.546875 -92 C 50.546875 -92 50.546875 -92.132812 50.546875 -92.132812 C 50.417969 -92.132812 50.417969 -92.132812 50.417969 -92.132812 C 50.417969 -92.132812 50.289062 -92.132812 50.289062 -92.132812 C 50.289062 -92.132812 50.160156 -92.132812 50.160156 -92.132812 C 50.160156 -92.132812 50.027344 -92.132812 50.027344 -92.132812 C 50.027344 -92.132812 50.027344 -92 50.027344 -92 L 49.769531 -91.351562 L 16.242188 -10.265625 C 13.644531 -4.160156 7.667969 -0.261719 1.039062 -0.261719 C 0.910156 -0.261719 0.78125 -0.128906 0.78125 0 C 0.78125 0.261719 0.910156 0.390625 1.039062 0.390625 L 48.339844 0.390625 C 48.46875 0.390625 48.730469 0.261719 48.730469 0 C 48.730469 -0.128906 48.46875 -0.261719 48.339844 -0.261719 C 36.515625 -0.261719 26.898438 -9.875 26.898438 -21.699219 C 26.898438 -33.527344 36.515625 -43.140625 48.339844 -43.140625 C 56.785156 -43.140625 64.453125 -38.074219 67.960938 -30.40625 L 77.96875 -7.535156 C 78.355469 -6.757812 78.488281 -5.976562 78.617188 -5.066406 C 78.617188 -2.46875 76.40625 -0.261719 73.808594 -0.261719 C 73.550781 -0.261719 73.417969 -0.128906 73.417969 0 C 73.417969 0.261719 73.550781 0.390625 73.808594 0.390625 L 96.03125 0.390625 C 96.289062 0.390625 96.417969 0.261719 96.417969 0 C 96.417969 -0.128906 96.289062 -0.261719 96.03125 -0.261719 Z M 48.339844 -43.792969 C 36.125 -43.792969 26.25 -33.914062 26.25 -21.699219 C 26.25 -11.566406 33.007812 -2.859375 42.882812 -0.261719 L 5.847656 -0.261719 C 9.226562 -1.300781 12.34375 -3.25 14.554688 -6.105469 L 12.996094 -2.339844 C 12.863281 -2.210938 12.996094 -1.949219 13.125 -1.949219 C 13.253906 -1.949219 13.253906 -1.949219 13.253906 -1.949219 C 13.382812 -1.949219 13.515625 -1.949219 13.644531 -2.078125 L 16.894531 -10.003906 C 16.894531 -10.003906 16.894531 -10.136719 16.894531 -10.136719 L 46 -80.4375 L 65.753906 -35.34375 C 61.59375 -40.671875 55.097656 -43.792969 48.339844 -43.792969 Z M 48.339844 -43.792969 "/></g></g></g><g fill="#604e45" fill-opacity="1"><g transform="translate(192.947605, 88.758206)"><g><path d="M -0.207031 -0.046875 L 1.175781 0.257812 L 1.210938 0.0976562 C 0.8125 -0.078125 0.851562 -0.496094 1.34375 -1.222656 L 2.457031 -2.855469 L 5.914062 -2.101562 L 6.269531 -0.136719 C 6.464844 0.867188 6.507812 1.132812 6.101562 1.164062 L 6.070312 1.320312 L 7.96875 1.734375 L 8.003906 1.574219 C 7.769531 1.410156 7.53125 1.101562 7.351562 0.0976562 L 5.910156 -7.804688 L 4.902344 -7.585938 L 4.957031 -7.304688 C 5.011719 -7.089844 4.988281 -6.925781 4.855469 -6.726562 L 1.136719 -1.269531 C 0.554688 -0.417969 0.195312 -0.242188 -0.171875 -0.203125 Z M 2.570312 -3.023438 L 5.082031 -6.703125 L 5.882812 -2.300781 Z M 2.570312 -3.023438 "/></g></g></g><g fill="#604e45" fill-opacity="1"><g transform="translate(209.990094, 93.245733)"><g><path d="M 0.597656 0.226562 L 2.496094 0.949219 L 2.554688 0.796875 C 2.230469 0.554688 2.230469 0.246094 2.59375 -0.714844 L 3.265625 -2.476562 L 4.097656 -2.160156 C 6.277344 -1.328125 7.832031 -1.984375 8.425781 -3.546875 C 8.859375 -4.683594 8.53125 -6.148438 6.105469 -7.074219 L 3.722656 -7.980469 L 3.664062 -7.828125 C 3.976562 -7.589844 3.992188 -7.273438 3.625 -6.3125 L 1.632812 -1.082031 C 1.269531 -0.121094 1.046875 0.105469 0.65625 0.0742188 Z M 3.332031 -2.652344 L 5.078125 -7.238281 C 5.222656 -7.195312 5.414062 -7.136719 5.578125 -7.074219 C 7.46875 -6.355469 7.769531 -4.921875 7.289062 -3.667969 C 6.765625 -2.285156 5.640625 -1.773438 4.140625 -2.34375 Z M 3.332031 -2.652344 "/></g></g></g><g fill="#604e45" fill-opacity="1"><g transform="translate(225.171329, 99.769277)"><g><path d="M 0.558594 0.3125 L 2.335938 1.300781 L 2.414062 1.160156 C 2.128906 0.871094 2.171875 0.5625 2.671875 -0.335938 L 3.589844 -1.980469 L 4.367188 -1.546875 C 6.40625 -0.410156 8.035156 -0.835938 8.847656 -2.292969 C 9.441406 -3.355469 9.328125 -4.855469 7.058594 -6.121094 L 4.835938 -7.359375 L 4.753906 -7.21875 C 5.03125 -6.9375 5 -6.621094 4.496094 -5.722656 L 1.773438 -0.835938 C 1.273438 0.0625 1.023438 0.253906 0.636719 0.167969 Z M 3.679688 -2.144531 L 6.066406 -6.429688 C 6.207031 -6.367188 6.386719 -6.28125 6.539062 -6.195312 C 8.304688 -5.210938 8.398438 -3.75 7.742188 -2.578125 C 7.023438 -1.285156 5.839844 -0.941406 4.4375 -1.722656 Z M 3.679688 -2.144531 "/></g></g></g><g fill="#604e45" fill-opacity="1"><g transform="translate(239.257831, 108.340119)"><g><path d="M 3.945312 3.265625 C 5.601562 4.570312 8.289062 4.929688 10.207031 2.496094 C 12.105469 0.078125 11.183594 -2.5 9.519531 -3.8125 C 7.429688 -5.457031 4.828125 -5.078125 3.238281 -3.054688 C 1.3125 -0.613281 2.269531 1.945312 3.945312 3.265625 Z M 4.476562 -3.007812 C 5.683594 -4.660156 7.4375 -5.082031 8.933594 -3.902344 C 10.699219 -2.515625 10.476562 0.425781 8.925781 2.539062 C 7.808594 4.058594 6.128906 4.585938 4.550781 3.34375 C 2.789062 1.957031 2.984375 -0.972656 4.476562 -3.007812 Z M 4.476562 -3.007812 "/></g></g></g><g fill="#604e45" fill-opacity="1"><g transform="translate(254.211227, 121.303826)"><g><path d="M 0.441406 0.464844 L 1.84375 1.9375 L 1.960938 1.824219 C 1.773438 1.464844 1.90625 1.183594 2.652344 0.472656 L 6.703125 -3.382812 C 7.449219 -4.09375 7.738281 -4.210938 8.085938 -4.003906 L 8.207031 -4.117188 L 6.804688 -5.589844 L 6.6875 -5.476562 C 6.863281 -5.128906 6.742188 -4.839844 5.996094 -4.128906 L 1.941406 -0.269531 C 1.195312 0.4375 0.902344 0.546875 0.558594 0.351562 Z M 0.441406 0.464844 "/></g></g></g><g fill="#604e45" fill-opacity="1"><g transform="translate(262.781496, 131.006751)"><g><path d="M 4.167969 5.949219 L 4.265625 6.082031 L 10.175781 1.820312 C 11.011719 1.214844 11.3125 1.140625 11.628906 1.390625 L 11.761719 1.292969 L 10.835938 0.0117188 L 10.707031 0.105469 C 10.914062 0.652344 10.804688 1.101562 9.644531 1.9375 L 5.585938 4.867188 L 8.136719 -3.734375 L 7.417969 -4.730469 L 7.285156 -4.636719 C 7.488281 -4.164062 7.339844 -3.871094 6.507812 -3.269531 L 1.96875 0.00390625 C 1.132812 0.605469 0.824219 0.671875 0.515625 0.433594 L 0.382812 0.527344 L 1.300781 1.800781 L 1.429688 1.707031 C 1.222656 1.160156 1.332031 0.710938 2.492188 -0.125 L 6.949219 -3.339844 Z M 4.167969 5.949219 "/></g></g></g><g fill="#604e45" fill-opacity="1"><g transform="translate(272.673594, 146.05169)"><g><path d="M 1.136719 2.222656 L 2.070312 4.042969 L 2.214844 3.96875 C 2.140625 3.570312 2.34375 3.339844 3.261719 2.871094 L 9.480469 -0.316406 L 9.75 0.207031 C 10.265625 1.214844 10.21875 1.785156 9.609375 2.578125 L 9.695312 2.6875 L 10.890625 1.992188 L 7.941406 -3.757812 L 6.679688 -3.195312 L 6.722656 -3.0625 C 7.71875 -3.09375 8.210938 -2.796875 8.726562 -1.789062 L 9.003906 -1.242188 L 2.785156 1.941406 C 1.871094 2.410156 1.5625 2.441406 1.285156 2.148438 Z M 1.136719 2.222656 "/></g></g></g><g fill="#604e45" fill-opacity="1"><g transform="translate(279.627347, 161.144101)"><g><path d="M 0.207031 0.605469 L 2.1875 6.464844 L 3.800781 6.027344 L 3.78125 5.886719 C 2.53125 5.832031 1.964844 5.214844 1.578125 4.074219 L 1.054688 2.53125 C 0.9375 2.1875 1.0625 1.929688 1.410156 1.816406 L 5.058594 0.578125 L 5.574219 2.101562 C 6.03125 3.457031 5.875 3.894531 5.386719 4.21875 L 5.4375 4.359375 L 7.230469 3.753906 L 7.183594 3.609375 C 6.597656 3.648438 6.210938 3.394531 5.75 2.039062 L 5.234375 0.519531 L 8.835938 -0.699219 L 9.429688 1.046875 C 9.839844 2.261719 9.71875 3.082031 8.816406 3.851562 L 8.894531 3.972656 L 10.394531 3.316406 L 8.523438 -2.210938 L 8.371094 -2.15625 C 8.382812 -1.765625 8.152344 -1.554688 7.175781 -1.222656 L 1.875 0.570312 C 0.902344 0.902344 0.585938 0.875 0.359375 0.554688 Z M 0.207031 0.605469 "/></g></g></g><g fill="#604e45" fill-opacity="1"><g transform="translate(284.392247, 177.434585)"><g><path d="M 1.148438 6.933594 C 1.191406 7.179688 1.273438 7.496094 1.367188 7.671875 L 1.515625 7.644531 C 1.492188 7.585938 1.480469 7.523438 1.46875 7.449219 C 1.394531 7.027344 1.757812 6.710938 3.132812 5.851562 C 4.546875 4.988281 5.257812 4.617188 5.1875 3.0625 C 5.65625 4.636719 6.683594 5.320312 7.84375 5.113281 C 8.945312 4.917969 9.640625 4.027344 9.191406 1.519531 L 8.757812 -0.914062 L 8.597656 -0.882812 C 8.554688 -0.480469 8.292969 -0.320312 7.277344 -0.136719 L 1.769531 0.84375 C 0.757812 1.023438 0.453125 0.964844 0.273438 0.601562 L 0.113281 0.628906 L 0.46875 2.632812 L 0.628906 2.601562 C 0.671875 2.199219 0.9375 2.039062 1.949219 1.855469 L 4.839844 1.339844 L 4.980469 2.132812 C 5.246094 3.613281 4.398438 3.867188 2.820312 4.886719 C 1.632812 5.660156 0.976562 5.980469 1.148438 6.933594 Z M 5.027344 1.308594 L 8.816406 0.632812 C 8.867188 0.828125 8.914062 1.023438 8.945312 1.207031 C 9.273438 3.035156 8.472656 3.917969 7.375 4.113281 C 6.324219 4.300781 5.464844 3.765625 5.210938 2.347656 Z M 5.027344 1.308594 "/></g></g></g></svg>