<svg xmlns="http://www.w3.org/2000/svg" xmlns:xlink="http://www.w3.org/1999/xlink" width="500" zoomAndPan="magnify" viewBox="0 0 375 374.999991" height="500" preserveAspectRatio="xMidYMid meet" version="1.0"><defs><g/><clipPath id="6c43eb76c6"><path d="M 74.550781 279.5 L 294.5 279.5 L 294.5 305.117188 L 74.550781 305.117188 Z M 74.550781 279.5 " clip-rule="nonzero"/></clipPath></defs><path stroke-linecap="butt" transform="matrix(0.00181868, -0.749657, 0.749998, 0.00181951, 183.399324, 366.455866)" fill="none" stroke-linejoin="miter" d="M -0.000344297 0.498821 L 206.099235 0.499048 " stroke="#000000" stroke-width="1" stroke-opacity="1" stroke-miterlimit="4"/><g fill="#000000" fill-opacity="1"><g transform="translate(97.316497, 336.041433)"><g><path d="M 5.527344 -70 C 5.527344 -39.789062 64.84375 -47.621094 64.84375 -19.894531 C 64.84375 -9.671875 54.25 0.183594 40.804688 0.183594 C 18.882812 0.183594 6.816406 -21.738281 6.816406 -21.738281 L 5.894531 -21.738281 L 5.894531 -9.394531 C 12.710938 -4.328125 23.488281 1.84375 35.644531 1.84375 C 56.921875 1.84375 70.1875 -10.867188 70.1875 -23.671875 C 70.1875 -55.910156 11.972656 -46.976562 11.972656 -72.210938 C 11.972656 -82.4375 21.367188 -92.84375 38.5 -92.84375 C 58.210938 -92.84375 63.832031 -77.371094 63.832031 -77.371094 L 64.75 -77.371094 L 64.75 -89.710938 C 57.660156 -92.109375 49.832031 -93.949219 38.5 -93.949219 C 17.222656 -93.949219 5.527344 -82.804688 5.527344 -70 Z M 5.527344 -70 "/></g></g></g><g fill="#000000" fill-opacity="1"><g transform="translate(200.008858, 336.041433)"><g><path d="M 0 -91.1875 C 5.617188 -91.1875 8.566406 -86.121094 12.617188 -75.988281 L 42.09375 1.84375 L 43.015625 1.84375 L 72.488281 -75.988281 C 76.355469 -86.210938 79.488281 -91.1875 85.105469 -91.1875 L 85.105469 -92.109375 L 59.039062 -92.109375 L 59.039062 -91.1875 C 72.027344 -91.1875 71.84375 -81.515625 69.449219 -74.148438 C 62.355469 -52.316406 53.699219 -30.578125 46.054688 -8.84375 L 21.183594 -74.421875 C 17.683594 -83.726562 17.222656 -91.1875 30.210938 -91.1875 L 30.210938 -92.109375 L 0 -92.109375 Z M 0 -91.1875 "/></g></g></g><g clip-path="url(#6c43eb76c6)"><path fill="#ffffff" d="M 74.550781 279.5 L 294.5 279.5 L 294.5 305.117188 L 74.550781 305.117188 Z M 74.550781 279.5 " fill-opacity="1" fill-rule="nonzero"/></g><g fill="#000000" fill-opacity="1"><g transform="translate(118.668238, 297.083623)"><g><path d="M 6.15625 0.09375 C 4.738281 0.09375 3.632812 -0.304688 2.84375 -1.109375 C 2.0625 -1.921875 1.671875 -3.097656 1.671875 -4.640625 L 1.671875 -10.875 L 2.828125 -10.875 L 2.828125 -4.6875 C 2.828125 -3.425781 3.109375 -2.484375 3.671875 -1.859375 C 4.242188 -1.242188 5.070312 -0.9375 6.15625 -0.9375 C 7.238281 -0.9375 8.0625 -1.242188 8.625 -1.859375 C 9.195312 -2.484375 9.484375 -3.425781 9.484375 -4.6875 L 9.484375 -10.875 L 10.609375 -10.875 L 10.609375 -4.640625 C 10.609375 -3.097656 10.21875 -1.921875 9.4375 -1.109375 C 8.65625 -0.304688 7.5625 0.09375 6.15625 0.09375 Z M 6.15625 0.09375 "/></g></g></g><g fill="#000000" fill-opacity="1"><g transform="translate(135.910333, 297.083623)"><g><path d="M 1.765625 -10.875 L 6.203125 -10.875 C 7.347656 -10.875 8.359375 -10.640625 9.234375 -10.171875 C 10.117188 -9.710938 10.800781 -9.070312 11.28125 -8.25 C 11.769531 -7.425781 12.015625 -6.488281 12.015625 -5.4375 C 12.015625 -4.382812 11.769531 -3.441406 11.28125 -2.609375 C 10.800781 -1.785156 10.117188 -1.144531 9.234375 -0.6875 C 8.359375 -0.226562 7.347656 0 6.203125 0 L 1.765625 0 Z M 6.140625 -1 C 7.085938 -1 7.914062 -1.1875 8.625 -1.5625 C 9.34375 -1.9375 9.898438 -2.457031 10.296875 -3.125 C 10.691406 -3.789062 10.890625 -4.5625 10.890625 -5.4375 C 10.890625 -6.300781 10.691406 -7.066406 10.296875 -7.734375 C 9.898438 -8.410156 9.34375 -8.9375 8.625 -9.3125 C 7.914062 -9.6875 7.085938 -9.875 6.140625 -9.875 L 2.921875 -9.875 L 2.921875 -1 Z M 6.140625 -1 "/></g></g></g><g fill="#000000" fill-opacity="1"><g transform="translate(153.679955, 297.083623)"><g><path d="M 8.59375 -2.90625 L 2.53125 -2.90625 L 1.234375 0 L 0.03125 0 L 5 -10.875 L 6.140625 -10.875 L 11.109375 0 L 9.890625 0 Z M 8.171875 -3.84375 L 5.5625 -9.671875 L 2.953125 -3.84375 Z M 8.171875 -3.84375 "/></g></g></g><g fill="#000000" fill-opacity="1"><g transform="translate(169.758368, 297.083623)"><g><path d="M 1.765625 -10.875 L 2.921875 -10.875 L 2.921875 -1 L 9.015625 -1 L 9.015625 0 L 1.765625 0 Z M 1.765625 -10.875 "/></g></g></g><g fill="#000000" fill-opacity="1"><g transform="translate(183.850776, 297.083623)"><g><path d="M 3.890625 -9.875 L 0.0625 -9.875 L 0.0625 -10.875 L 8.859375 -10.875 L 8.859375 -9.875 L 5.03125 -9.875 L 5.03125 0 L 3.890625 0 Z M 3.890625 -9.875 "/></g></g></g><g fill="#000000" fill-opacity="1"><g transform="translate(197.710446, 297.083623)"><g><path d="M 4.765625 0.09375 C 3.960938 0.09375 3.1875 -0.0351562 2.4375 -0.296875 C 1.695312 -0.554688 1.128906 -0.894531 0.734375 -1.3125 L 1.1875 -2.203125 C 1.570312 -1.804688 2.09375 -1.488281 2.75 -1.25 C 3.40625 -1.007812 4.078125 -0.890625 4.765625 -0.890625 C 5.742188 -0.890625 6.472656 -1.066406 6.953125 -1.421875 C 7.441406 -1.773438 7.6875 -2.238281 7.6875 -2.8125 C 7.6875 -3.25 7.550781 -3.59375 7.28125 -3.84375 C 7.019531 -4.101562 6.695312 -4.300781 6.3125 -4.4375 C 5.9375 -4.582031 5.40625 -4.738281 4.71875 -4.90625 C 3.90625 -5.113281 3.253906 -5.3125 2.765625 -5.5 C 2.273438 -5.695312 1.859375 -5.988281 1.515625 -6.375 C 1.171875 -6.769531 1 -7.304688 1 -7.984375 C 1 -8.535156 1.140625 -9.035156 1.421875 -9.484375 C 1.710938 -9.929688 2.160156 -10.289062 2.765625 -10.5625 C 3.367188 -10.832031 4.113281 -10.96875 5 -10.96875 C 5.625 -10.96875 6.234375 -10.878906 6.828125 -10.703125 C 7.421875 -10.535156 7.9375 -10.300781 8.375 -10 L 7.984375 -9.078125 C 7.523438 -9.378906 7.035156 -9.601562 6.515625 -9.75 C 6.003906 -9.90625 5.5 -9.984375 5 -9.984375 C 4.050781 -9.984375 3.332031 -9.800781 2.84375 -9.4375 C 2.363281 -9.070312 2.125 -8.597656 2.125 -8.015625 C 2.125 -7.578125 2.253906 -7.222656 2.515625 -6.953125 C 2.785156 -6.691406 3.117188 -6.492188 3.515625 -6.359375 C 3.910156 -6.222656 4.445312 -6.070312 5.125 -5.90625 C 5.925781 -5.707031 6.570312 -5.507812 7.0625 -5.3125 C 7.550781 -5.125 7.96875 -4.835938 8.3125 -4.453125 C 8.65625 -4.066406 8.828125 -3.539062 8.828125 -2.875 C 8.828125 -2.320312 8.675781 -1.820312 8.375 -1.375 C 8.082031 -0.925781 7.628906 -0.566406 7.015625 -0.296875 C 6.410156 -0.0351562 5.660156 0.09375 4.765625 0.09375 Z M 4.765625 0.09375 "/></g></g></g><g fill="#000000" fill-opacity="1"><g transform="translate(212.206258, 297.083623)"><g><path d="M 6.515625 0.09375 C 5.441406 0.09375 4.46875 -0.144531 3.59375 -0.625 C 2.71875 -1.101562 2.035156 -1.765625 1.546875 -2.609375 C 1.054688 -3.453125 0.8125 -4.394531 0.8125 -5.4375 C 0.8125 -6.476562 1.054688 -7.414062 1.546875 -8.25 C 2.035156 -9.09375 2.71875 -9.753906 3.59375 -10.234375 C 4.46875 -10.722656 5.441406 -10.96875 6.515625 -10.96875 C 7.597656 -10.96875 8.570312 -10.726562 9.4375 -10.25 C 10.300781 -9.769531 10.976562 -9.109375 11.46875 -8.265625 C 11.96875 -7.421875 12.21875 -6.476562 12.21875 -5.4375 C 12.21875 -4.394531 11.96875 -3.445312 11.46875 -2.59375 C 10.976562 -1.75 10.300781 -1.085938 9.4375 -0.609375 C 8.570312 -0.140625 7.597656 0.09375 6.515625 0.09375 Z M 6.515625 -0.9375 C 7.378906 -0.9375 8.15625 -1.128906 8.84375 -1.515625 C 9.539062 -1.898438 10.085938 -2.4375 10.484375 -3.125 C 10.878906 -3.8125 11.078125 -4.582031 11.078125 -5.4375 C 11.078125 -6.28125 10.878906 -7.046875 10.484375 -7.734375 C 10.085938 -8.429688 9.539062 -8.972656 8.84375 -9.359375 C 8.15625 -9.742188 7.378906 -9.9375 6.515625 -9.9375 C 5.660156 -9.9375 4.882812 -9.742188 4.1875 -9.359375 C 3.488281 -8.972656 2.9375 -8.429688 2.53125 -7.734375 C 2.132812 -7.046875 1.9375 -6.28125 1.9375 -5.4375 C 1.9375 -4.582031 2.132812 -3.8125 2.53125 -3.125 C 2.9375 -2.4375 3.488281 -1.898438 4.1875 -1.515625 C 4.882812 -1.128906 5.660156 -0.9375 6.515625 -0.9375 Z M 6.515625 -0.9375 "/></g></g></g><g fill="#000000" fill-opacity="1"><g transform="translate(230.177584, 297.083623)"><g><path d="M 10.8125 -10.875 L 6 0 L 4.859375 0 L 0.046875 -10.875 L 1.296875 -10.875 L 5.453125 -1.421875 L 9.640625 -10.875 Z M 10.8125 -10.875 "/></g></g></g><g fill="#000000" fill-opacity="1"><g transform="translate(245.961194, 297.083623)"><g><path d="M 1.65625 -11.609375 C 1.894531 -11.609375 2.09375 -11.523438 2.25 -11.359375 C 2.40625 -11.203125 2.484375 -11.003906 2.484375 -10.765625 C 2.484375 -10.640625 2.460938 -10.503906 2.421875 -10.359375 C 2.390625 -10.222656 2.34375 -10.0625 2.28125 -9.875 L 1.609375 -7.734375 L 0.875 -7.734375 L 1.40625 -9.96875 C 1.238281 -10.019531 1.101562 -10.113281 1 -10.25 C 0.894531 -10.394531 0.84375 -10.566406 0.84375 -10.765625 C 0.84375 -11.015625 0.914062 -11.21875 1.0625 -11.375 C 1.21875 -11.53125 1.414062 -11.609375 1.65625 -11.609375 Z M 1.65625 -11.609375 "/></g></g></g><g fill="#000000" fill-opacity="1"><g transform="translate(254.20419, 297.083623)"><g><path d="M 4.765625 0.09375 C 3.960938 0.09375 3.1875 -0.0351562 2.4375 -0.296875 C 1.695312 -0.554688 1.128906 -0.894531 0.734375 -1.3125 L 1.1875 -2.203125 C 1.570312 -1.804688 2.09375 -1.488281 2.75 -1.25 C 3.40625 -1.007812 4.078125 -0.890625 4.765625 -0.890625 C 5.742188 -0.890625 6.472656 -1.066406 6.953125 -1.421875 C 7.441406 -1.773438 7.6875 -2.238281 7.6875 -2.8125 C 7.6875 -3.25 7.550781 -3.59375 7.28125 -3.84375 C 7.019531 -4.101562 6.695312 -4.300781 6.3125 -4.4375 C 5.9375 -4.582031 5.40625 -4.738281 4.71875 -4.90625 C 3.90625 -5.113281 3.253906 -5.3125 2.765625 -5.5 C 2.273438 -5.695312 1.859375 -5.988281 1.515625 -6.375 C 1.171875 -6.769531 1 -7.304688 1 -7.984375 C 1 -8.535156 1.140625 -9.035156 1.421875 -9.484375 C 1.710938 -9.929688 2.160156 -10.289062 2.765625 -10.5625 C 3.367188 -10.832031 4.113281 -10.96875 5 -10.96875 C 5.625 -10.96875 6.234375 -10.878906 6.828125 -10.703125 C 7.421875 -10.535156 7.9375 -10.300781 8.375 -10 L 7.984375 -9.078125 C 7.523438 -9.378906 7.035156 -9.601562 6.515625 -9.75 C 6.003906 -9.90625 5.5 -9.984375 5 -9.984375 C 4.050781 -9.984375 3.332031 -9.800781 2.84375 -9.4375 C 2.363281 -9.070312 2.125 -8.597656 2.125 -8.015625 C 2.125 -7.578125 2.253906 -7.222656 2.515625 -6.953125 C 2.785156 -6.691406 3.117188 -6.492188 3.515625 -6.359375 C 3.910156 -6.222656 4.445312 -6.070312 5.125 -5.90625 C 5.925781 -5.707031 6.570312 -5.507812 7.0625 -5.3125 C 7.550781 -5.125 7.96875 -4.835938 8.3125 -4.453125 C 8.65625 -4.066406 8.828125 -3.539062 8.828125 -2.875 C 8.828125 -2.320312 8.675781 -1.820312 8.375 -1.375 C 8.082031 -0.925781 7.628906 -0.566406 7.015625 -0.296875 C 6.410156 -0.0351562 5.660156 0.09375 4.765625 0.09375 Z M 4.765625 0.09375 "/></g></g></g></svg>