<!DOCTYPE svg PUBLIC "-//W3C//DTD SVG 1.1//EN" "http://www.w3.org/Graphics/SVG/1.1/DTD/svg11.dtd">
<!-- Uploaded to: SVG Repo, www.svgrepo.com, Transformed by: SVG Repo Mixer Tools -->
<svg version="1.1" id="Layer_1" xmlns="http://www.w3.org/2000/svg" xmlns:xlink="http://www.w3.org/1999/xlink" width="800px" height="800px" viewBox="0 0 64 64" enable-background="new 0 0 64 64" xml:space="preserve" fill="#ffffff" stroke="#ffffff">
<g id="SVGRepo_bgCarrier" stroke-width="0"/>
<g id="SVGRepo_tracerCarrier" stroke-linecap="round" stroke-linejoin="round"/>
<g id="SVGRepo_iconCarrier"> <path fill="none" stroke="#ffffff" stroke-width="2" stroke-miterlimit="10" d="M32.001,0.887c17.184,0,31.113,13.929,31.112,31.113 C63.114,49.185,49.184,63.115,32,63.113C14.815,63.114,0.887,49.185,0.888,32.001C0.885,14.816,14.815,0.887,32.001,0.887z"/> <line fill="none" stroke="#ffffff" stroke-width="2" stroke-miterlimit="10" x1="32" y1="1" x2="32" y2="63"/> <line fill="none" stroke="#ffffff" stroke-width="2" stroke-miterlimit="10" x1="63" y1="32" x2="1" y2="32"/> <path fill="none" stroke="#ffffff" stroke-width="2" stroke-miterlimit="10" d="M30,1c0,0-14,11-14,31s14,31,14,31"/> <path fill="none" stroke="#ffffff" stroke-width="2" stroke-miterlimit="10" d="M34,1c0,0,14,11,14,31S34,63,34,63"/> <path fill="none" stroke="#ffffff" stroke-width="2" stroke-miterlimit="10" d="M8,12c0,0,5,10,24,10s24-10,24-10"/> <path fill="none" stroke="#ffffff" stroke-width="2" stroke-miterlimit="10" d="M8,52c0,0,5-10,24-10s24,10,24,10"/> </g>
</svg>