<svg xmlns="http://www.w3.org/2000/svg" xmlns:xlink="http://www.w3.org/1999/xlink" width="500" zoomAndPan="magnify" viewBox="0 0 375 374.999991" height="500" preserveAspectRatio="xMidYMid meet" version="1.0"><defs><g/><clipPath id="5b8e5c14a6"><path d="M 79 82 L 296 82 L 296 300 L 79 300 Z M 79 82 " clip-rule="nonzero"/></clipPath><clipPath id="a1bd615245"><path d="M 233.078125 44.78125 L 332.683594 240.664062 L 142.152344 337.546875 L 42.546875 141.667969 Z M 233.078125 44.78125 " clip-rule="nonzero"/></clipPath><clipPath id="e7ebc30b97"><path d="M 233.078125 44.78125 L 332.683594 240.664062 L 142.152344 337.546875 L 42.546875 141.667969 Z M 233.078125 44.78125 " clip-rule="nonzero"/></clipPath><clipPath id="f297e1d60a"><path d="M 267.851562 120.949219 C 227.890625 75.246094 159.375 69.597656 115.125 108.347656 C 105.566406 116.71875 97.8125 126.675781 91.890625 137.847656 L 92.171875 137.996094 L 91.890625 137.847656 C 81.742188 156.980469 77.746094 178.714844 80.324219 200.699219 C 82.960938 223.171875 92.332031 244.175781 107.429688 261.441406 C 147.359375 307.097656 215.804688 312.746094 260.007812 274.03125 C 304.257812 235.277344 307.816406 166.648438 267.851562 120.949219 Z M 103.613281 240.929688 C 105.304688 242.863281 106.78125 244.375 107.894531 245.453125 C 115.304688 252.625 125.546875 253.179688 136.390625 253.765625 C 148.914062 254.445312 163.109375 255.214844 175.320312 266.585938 C 185.660156 276.214844 195.8125 284.644531 207.289062 288.484375 C 195.652344 285.011719 185.414062 277.109375 175.339844 268.332031 C 163.191406 257.753906 149.308594 256.535156 137.058594 255.457031 C 126.066406 254.492188 115.683594 253.582031 108.179688 246.195312 C 101.488281 239.605469 95.195312 231.058594 90.386719 221.050781 C 94.726562 229.8125 99.730469 236.492188 103.613281 240.929688 Z M 98.871094 234.070312 C 100.386719 236.109375 101.855469 237.90625 103.195312 239.4375 C 105.078125 241.589844 106.71875 243.242188 107.921875 244.386719 C 115.152344 251.246094 125.203125 251.453125 135.84375 251.667969 C 148.691406 251.929688 163.253906 252.222656 175.597656 264.492188 C 185.730469 274.566406 195.132812 283.300781 206.339844 287.660156 C 195.363281 283.695312 185.578125 275.539062 175.617188 266.261719 C 163.289062 254.777344 149.007812 254.007812 136.410156 253.324219 C 125.652344 252.742188 115.492188 252.195312 108.199219 245.136719 C 106.960938 243.9375 103.199219 240.125 98.871094 234.070312 Z M 175.058594 270.40625 C 163.136719 260.71875 149.679688 259.085938 137.808594 257.648438 C 126.542969 256.285156 115.902344 254.992188 108.164062 247.25 C 102.136719 241.226562 96.449219 233.59375 91.863281 224.757812 C 95.976562 232.46875 100.488281 238.386719 103.996094 242.394531 C 105.511719 244.128906 106.839844 245.507812 107.863281 246.515625 C 115.480469 254.015625 125.945312 254.933594 137.019531 255.910156 C 149.199219 256.980469 163.003906 258.191406 175.042969 268.671875 C 185.390625 277.6875 195.914062 285.789062 207.933594 289.160156 C 195.730469 286.15625 185.113281 278.570312 175.058594 270.402344 Z M 208.328125 289.753906 C 195.636719 287.195312 184.699219 279.972656 174.777344 272.476562 C 163.132812 263.679688 150.703125 261.765625 138.679688 259.910156 C 127.097656 258.128906 116.15625 256.441406 108.140625 248.3125 C 102.128906 242.210938 96.460938 234.519531 91.878906 225.644531 C 96.128906 233.664062 100.792969 239.78125 104.347656 243.84375 C 105.695312 245.390625 106.890625 246.640625 107.835938 247.585938 C 115.691406 255.441406 126.410156 256.742188 137.753906 258.117188 C 150.140625 259.617188 162.949219 261.171875 174.765625 270.769531 C 185.015625 279.097656 195.84375 286.820312 208.332031 289.757812 Z M 104.472656 245.0625 C 105.554688 246.300781 106.667969 247.496094 107.796875 248.648438 C 115.925781 256.890625 126.945312 258.589844 138.609375 260.386719 C 150.570312 262.230469 162.945312 264.136719 174.484375 272.859375 C 183.765625 279.875 194.808594 287.234375 207.355469 290.066406 C 195.421875 287.800781 184.640625 281.660156 174.492188 274.550781 C 163.199219 266.636719 151.257812 264.414062 139.710938 262.261719 C 127.746094 260.035156 116.445312 257.933594 108.121094 249.371094 C 101.53125 242.601562 95.339844 233.941406 90.554688 223.894531 C 94.320312 231.640625 99.054688 238.871094 104.472656 245.066406 Z M 104.769531 246.457031 C 105.746094 247.574219 106.746094 248.664062 107.769531 249.710938 C 116.207031 258.386719 127.582031 260.503906 139.625 262.746094 C 151.121094 264.886719 163.003906 267.101562 174.210938 274.953125 C 183.96875 281.789062 197.074219 289.828125 211.957031 291.339844 C 212.632812 291.410156 213.3125 291.449219 213.988281 291.488281 C 199.3125 290.984375 186.335938 284.464844 174.214844 276.617188 C 163.347656 269.582031 151.960938 267.113281 140.949219 264.722656 C 128.53125 262.023438 116.800781 259.480469 108.105469 250.425781 C 101.671875 243.726562 95.617188 235.226562 90.871094 225.402344 C 94.652344 233.097656 99.371094 240.28125 104.773438 246.457031 Z M 105.984375 253.226562 C 106.523438 253.839844 107.066406 254.441406 107.613281 255.042969 C 118.855469 267.257812 133.753906 271.992188 149.527344 277 C 157.1875 279.429688 165.113281 281.945312 172.84375 285.417969 C 188.453125 292.421875 203.253906 295.097656 217.441406 293.433594 C 203.289062 295.445312 188.472656 293.289062 172.785156 286.980469 C 166.503906 284.453125 160.101562 282.335938 153.90625 280.292969 C 136.605469 274.578125 120.265625 269.179688 108.003906 255.726562 C 105.210938 252.664062 102.554688 249.316406 100.0625 245.746094 C 101.925781 248.34375 103.898438 250.84375 105.980469 253.230469 Z M 99.550781 244.003906 C 101.488281 246.738281 103.550781 249.359375 105.734375 251.855469 C 106.359375 252.574219 107 253.28125 107.644531 253.976562 C 118.050781 265.179688 131.855469 269.285156 146.472656 273.644531 C 155.242188 276.253906 164.3125 278.953125 173.117188 283.324219 C 186.332031 289.886719 198.789062 293.21875 210.792969 293.320312 C 198.714844 293.59375 186.183594 290.789062 173.074219 284.910156 C 165.308594 281.425781 157.371094 278.902344 149.695312 276.46875 C 133.996094 271.484375 119.167969 266.777344 108.027344 254.667969 C 105.03125 251.410156 102.191406 247.84375 99.550781 244.007812 Z M 104.929688 247.714844 C 105.847656 248.761719 106.78125 249.785156 107.738281 250.78125 C 116.539062 259.945312 128.34375 262.507812 140.839844 265.21875 C 151.808594 267.601562 163.148438 270.0625 173.9375 277.046875 C 188.527344 286.492188 200.394531 291.058594 212.402344 291.839844 C 198.007812 291.332031 185.28125 285.457031 173.929688 278.691406 C 163.589844 272.53125 152.839844 269.882812 142.445312 267.320312 C 129.46875 264.125 117.21875 261.105469 108.085938 251.488281 C 103.78125 246.953125 99.652344 241.613281 95.96875 235.625 C 98.660156 239.921875 101.660156 243.976562 104.929688 247.71875 Z M 105.207031 249.105469 C 106.023438 250.035156 106.859375 250.953125 107.707031 251.84375 C 116.941406 261.574219 129.269531 264.609375 142.316406 267.828125 C 152.675781 270.378906 163.386719 273.019531 173.660156 279.140625 C 187.835938 287.582031 200.058594 291.769531 212.03125 292.296875 C 197.351562 292.109375 184.484375 286.675781 173.644531 280.761719 C 163.964844 275.480469 153.960938 272.746094 144.289062 270.097656 C 130.625 266.359375 117.71875 262.828125 108.066406 252.546875 C 104.386719 248.632812 100.9375 244.242188 97.8125 239.449219 C 100.09375 242.839844 102.558594 246.074219 105.207031 249.105469 Z M 105.476562 250.480469 C 106.195312 251.304688 106.929688 252.113281 107.675781 252.910156 C 117.429688 263.300781 130.40625 266.851562 144.148438 270.609375 C 153.792969 273.25 163.761719 275.980469 173.390625 281.230469 C 183.441406 286.710938 195.21875 291.785156 208.558594 292.703125 C 197.324219 292.234375 185.671875 288.945312 173.359375 282.832031 C 164.511719 278.441406 155.421875 275.734375 146.632812 273.113281 C 132.089844 268.785156 118.355469 264.691406 108.050781 253.601562 C 104.832031 250.140625 101.800781 246.308594 99 242.179688 C 101.023438 245.074219 103.179688 247.855469 105.480469 250.480469 Z M 106.234375 254.59375 C 106.679688 255.101562 107.128906 255.605469 107.585938 256.105469 C 119.949219 269.671875 136.355469 275.09375 153.726562 280.832031 C 159.914062 282.871094 166.308594 284.984375 172.574219 287.507812 C 185.964844 292.890625 198.730469 295.265625 210.992188 294.628906 C 198.648438 295.640625 185.796875 293.789062 172.503906 289.042969 C 168.371094 287.570312 164.167969 286.175781 160.105469 284.824219 C 140.4375 278.300781 121.867188 272.136719 107.992188 256.777344 C 104.21875 252.597656 100.835938 248.15625 97.832031 243.519531 C 100.394531 247.40625 103.199219 251.113281 106.238281 254.589844 Z M 106.476562 255.960938 C 106.832031 256.367188 107.195312 256.773438 107.554688 257.171875 C 121.535156 272.648438 140.179688 278.835938 159.917969 285.386719 C 163.980469 286.734375 168.179688 288.128906 172.304688 289.601562 C 185.710938 294.382812 198.664062 296.246094 211.105469 295.214844 C 198.578125 296.621094 185.53125 295.28125 172.214844 291.117188 L 170.21875 290.5 C 147.707031 283.472656 124.425781 276.207031 107.972656 257.839844 C 107.695312 257.527344 107.421875 257.21875 107.144531 256.902344 C 104.222656 253.5625 101.550781 250.0625 99.101562 246.445312 C 101.386719 249.761719 103.84375 252.953125 106.480469 255.964844 Z M 106.675781 257.28125 C 106.957031 257.601562 107.238281 257.925781 107.523438 258.242188 C 124.085938 276.738281 147.445312 284.023438 170.039062 291.074219 L 172.035156 291.695312 C 185.433594 295.882812 198.554688 297.234375 211.160156 295.820312 C 198.464844 297.613281 185.242188 296.777344 171.921875 293.191406 C 150.144531 287.335938 125.519531 278.679688 107.949219 258.898438 C 107.761719 258.6875 107.585938 258.484375 107.398438 258.273438 C 105.417969 256.007812 103.550781 253.667969 101.785156 251.269531 C 103.339844 253.324219 104.96875 255.332031 106.671875 257.28125 Z M 107.917969 261.015625 C 105.953125 258.769531 104.09375 256.453125 102.335938 254.085938 C 103.90625 256.152344 105.542969 258.175781 107.265625 260.140625 L 107.46875 260.371094 C 122.855469 277.792969 144.398438 289.738281 171.503906 295.878906 C 184.285156 298.773438 196.925781 299.296875 209.078125 297.5625 C 173.09375 303.738281 134.265625 291.140625 107.921875 261.015625 Z M 171.636719 295.265625 C 144.664062 289.160156 123.230469 277.277344 107.933594 259.957031 L 107.742188 259.738281 C 105.828125 257.546875 104.015625 255.292969 102.292969 252.984375 C 103.773438 254.921875 105.3125 256.820312 106.929688 258.664062 C 107.117188 258.878906 107.304688 259.089844 107.496094 259.304688 C 125.171875 279.207031 149.902344 287.90625 171.765625 293.789062 C 187.308594 297.96875 202.71875 298.441406 217.320312 295.367188 C 202.742188 298.785156 187.292969 298.8125 171.636719 295.265625 Z M 258.59375 274.386719 C 258.421875 274.535156 258.246094 274.683594 258.070312 274.828125 C 257.875 274.988281 257.683594 275.148438 257.488281 275.308594 C 257.324219 275.441406 257.164062 275.570312 257 275.699219 C 256.832031 275.832031 256.660156 275.972656 256.496094 276.101562 C 256.355469 276.210938 256.214844 276.316406 256.078125 276.417969 C 255.886719 276.566406 255.695312 276.707031 255.503906 276.851562 C 255.476562 276.875 255.445312 276.898438 255.417969 276.917969 C 255.027344 277.207031 254.636719 277.492188 254.246094 277.773438 C 254.226562 277.785156 254.207031 277.796875 254.191406 277.8125 C 253.597656 278.226562 253.007812 278.632812 252.417969 279.035156 C 252.308594 279.105469 252.199219 279.183594 252.089844 279.257812 C 251.773438 279.464844 251.453125 279.691406 251.132812 279.894531 C 251.046875 279.949219 250.964844 279.996094 250.882812 280.054688 C 250.03125 280.597656 249.1875 281.105469 248.347656 281.605469 C 248.058594 281.773438 247.769531 281.945312 247.480469 282.109375 C 246.863281 282.464844 246.253906 282.800781 245.644531 283.132812 C 245.171875 283.382812 244.707031 283.628906 244.238281 283.871094 C 244.179688 283.898438 244.121094 283.929688 244.0625 283.960938 C 243.925781 284.03125 243.792969 284.09375 243.65625 284.164062 C 211.792969 299.867188 192.84375 281.03125 175.898438 264.1875 C 163.4375 251.796875 148.78125 251.5 135.851562 251.238281 C 125.296875 251.027344 115.328125 250.824219 108.21875 244.074219 C 104.71875 240.753906 81.039062 216.886719 81.417969 180.316406 C 81.503906 175.648438 81.953125 170.855469 82.835938 165.964844 C 82.871094 165.769531 82.90625 165.578125 82.945312 165.382812 C 83.09375 164.570312 83.273438 163.75 83.445312 162.933594 C 83.617188 162.160156 83.785156 161.386719 83.976562 160.609375 C 84.054688 160.285156 84.140625 159.957031 84.222656 159.628906 C 84.519531 158.460938 84.832031 157.292969 85.175781 156.125 C 85.175781 156.125 85.175781 156.125 85.175781 156.117188 C 85.554688 154.832031 85.96875 153.542969 86.40625 152.253906 C 86.457031 152.109375 86.503906 151.960938 86.558594 151.8125 C 86.917969 150.773438 87.300781 149.734375 87.699219 148.695312 C 87.878906 148.238281 88.054688 147.777344 88.238281 147.320312 C 88.421875 146.855469 88.621094 146.386719 88.820312 145.921875 C 88.902344 145.722656 88.984375 145.523438 89.066406 145.324219 C 89.105469 145.238281 89.140625 145.152344 89.175781 145.066406 C 89.441406 144.449219 89.707031 143.832031 89.984375 143.21875 C 90.019531 143.144531 90.050781 143.070312 90.082031 142.992188 C 90.101562 142.949219 90.125 142.90625 90.144531 142.863281 C 90.230469 142.683594 90.316406 142.5 90.402344 142.320312 C 90.613281 141.863281 90.835938 141.40625 91.058594 140.949219 C 91.105469 140.847656 91.15625 140.746094 91.203125 140.648438 C 91.300781 140.453125 91.394531 140.261719 91.492188 140.066406 C 91.566406 139.917969 91.640625 139.769531 91.714844 139.621094 C 91.964844 139.128906 92.203125 138.636719 92.457031 138.148438 C 98.332031 127.070312 106.210938 117.292969 115.6875 108.992188 C 159.585938 70.550781 227.554688 76.164062 267.210938 121.511719 C 306.863281 166.855469 303.484375 235.105469 259.589844 273.546875 C 259.261719 273.832031 258.925781 274.109375 258.597656 274.394531 Z M 258.59375 274.386719 " clip-rule="nonzero"/></clipPath><linearGradient x1="-153.394968" gradientTransform="matrix(0.142685, 0.280602, -0.280162, 0.142462, 233.044749, 44.799869)" y1="339.92001" x2="866.379014" gradientUnits="userSpaceOnUse" y2="339.92001" id="9af54a5492"><stop stop-opacity="1" stop-color="rgb(39.199829%, 21.199036%, 4.299927%)" offset="0"/><stop stop-opacity="1" stop-color="rgb(39.199829%, 21.199036%, 4.299927%)" offset="0.0625"/><stop stop-opacity="1" stop-color="rgb(39.199829%, 21.199036%, 4.299927%)" offset="0.078125"/><stop stop-opacity="1" stop-color="rgb(39.199829%, 21.199036%, 4.299927%)" offset="0.0859375"/><stop stop-opacity="1" stop-color="rgb(39.614868%, 21.632385%, 4.573059%)" offset="0.0898438"/><stop stop-opacity="1" stop-color="rgb(40.031433%, 22.067261%, 4.846191%)" offset="0.09375"/><stop stop-opacity="1" stop-color="rgb(41.340637%, 23.435974%, 5.708313%)" offset="0.0976563"/><stop stop-opacity="1" stop-color="rgb(42.651367%, 24.804688%, 6.570435%)" offset="0.101563"/><stop stop-opacity="1" stop-color="rgb(43.960571%, 26.173401%, 7.432556%)" offset="0.105469"/><stop stop-opacity="1" stop-color="rgb(45.271301%, 27.542114%, 8.294678%)" offset="0.109375"/><stop stop-opacity="1" stop-color="rgb(46.582031%, 28.909302%, 9.156799%)" offset="0.113281"/><stop stop-opacity="1" stop-color="rgb(47.892761%, 30.278015%, 10.018921%)" offset="0.117188"/><stop stop-opacity="1" stop-color="rgb(49.201965%, 31.646729%, 10.879517%)" offset="0.121094"/><stop stop-opacity="1" stop-color="rgb(50.512695%, 33.015442%, 11.741638%)" offset="0.125"/><stop stop-opacity="1" stop-color="rgb(51.821899%, 34.382629%, 12.60376%)" offset="0.128906"/><stop stop-opacity="1" stop-color="rgb(53.132629%, 35.751343%, 13.465881%)" offset="0.132812"/><stop stop-opacity="1" stop-color="rgb(54.443359%, 37.120056%, 14.328003%)" offset="0.136719"/><stop stop-opacity="1" stop-color="rgb(55.754089%, 38.48877%, 15.190125%)" offset="0.140625"/><stop stop-opacity="1" stop-color="rgb(57.063293%, 39.857483%, 16.052246%)" offset="0.144531"/><stop stop-opacity="1" stop-color="rgb(58.374023%, 41.226196%, 16.914368%)" offset="0.148438"/><stop stop-opacity="1" stop-color="rgb(59.683228%, 42.593384%, 17.776489%)" offset="0.152344"/><stop stop-opacity="1" stop-color="rgb(60.993958%, 43.962097%, 18.638611%)" offset="0.15625"/><stop stop-opacity="1" stop-color="rgb(62.304688%, 45.330811%, 19.500732%)" offset="0.160156"/><stop stop-opacity="1" stop-color="rgb(63.615417%, 46.699524%, 20.362854%)" offset="0.164063"/><stop stop-opacity="1" stop-color="rgb(64.924622%, 48.068237%, 21.22345%)" offset="0.167969"/><stop stop-opacity="1" stop-color="rgb(66.235352%, 49.436951%, 22.085571%)" offset="0.171875"/><stop stop-opacity="1" stop-color="rgb(67.544556%, 50.804138%, 22.947693%)" offset="0.175781"/><stop stop-opacity="1" stop-color="rgb(68.855286%, 52.172852%, 23.809814%)" offset="0.179688"/><stop stop-opacity="1" stop-color="rgb(70.166016%, 53.541565%, 24.671936%)" offset="0.183594"/><stop stop-opacity="1" stop-color="rgb(71.476746%, 54.910278%, 25.534058%)" offset="0.1875"/><stop stop-opacity="1" stop-color="rgb(72.78595%, 56.277466%, 26.396179%)" offset="0.191406"/><stop stop-opacity="1" stop-color="rgb(74.09668%, 57.646179%, 27.258301%)" offset="0.195313"/><stop stop-opacity="1" stop-color="rgb(75.40741%, 59.014893%, 28.120422%)" offset="0.199219"/><stop stop-opacity="1" stop-color="rgb(76.71814%, 60.383606%, 28.982544%)" offset="0.203125"/><stop stop-opacity="1" stop-color="rgb(78.027344%, 61.752319%, 29.844666%)" offset="0.207031"/><stop stop-opacity="1" stop-color="rgb(79.338074%, 63.121033%, 30.706787%)" offset="0.210938"/><stop stop-opacity="1" stop-color="rgb(80.647278%, 64.48822%, 31.567383%)" offset="0.214844"/><stop stop-opacity="1" stop-color="rgb(81.958008%, 65.856934%, 32.429504%)" offset="0.21875"/><stop stop-opacity="1" stop-color="rgb(83.268738%, 67.225647%, 33.291626%)" offset="0.222656"/><stop stop-opacity="1" stop-color="rgb(84.579468%, 68.59436%, 34.153748%)" offset="0.226563"/><stop stop-opacity="1" stop-color="rgb(85.888672%, 69.961548%, 35.015869%)" offset="0.230469"/><stop stop-opacity="1" stop-color="rgb(87.199402%, 71.330261%, 35.877991%)" offset="0.234375"/><stop stop-opacity="1" stop-color="rgb(88.508606%, 72.698975%, 36.740112%)" offset="0.238281"/><stop stop-opacity="1" stop-color="rgb(89.819336%, 74.067688%, 37.602234%)" offset="0.242188"/><stop stop-opacity="1" stop-color="rgb(91.130066%, 75.436401%, 38.464355%)" offset="0.246094"/><stop stop-opacity="1" stop-color="rgb(92.440796%, 76.805115%, 39.326477%)" offset="0.25"/><stop stop-opacity="1" stop-color="rgb(93.75%, 78.172302%, 40.188599%)" offset="0.253906"/><stop stop-opacity="1" stop-color="rgb(95.06073%, 79.541016%, 41.05072%)" offset="0.257813"/><stop stop-opacity="1" stop-color="rgb(96.369934%, 80.909729%, 41.911316%)" offset="0.261719"/><stop stop-opacity="1" stop-color="rgb(97.680664%, 82.278442%, 42.773438%)" offset="0.265625"/><stop stop-opacity="1" stop-color="rgb(98.695374%, 83.337402%, 43.441772%)" offset="0.269531"/><stop stop-opacity="1" stop-color="rgb(99.710083%, 84.397888%, 44.110107%)" offset="0.273438"/><stop stop-opacity="1" stop-color="rgb(98.458862%, 83.091736%, 43.286133%)" offset="0.277344"/><stop stop-opacity="1" stop-color="rgb(97.209167%, 81.785583%, 42.463684%)" offset="0.28125"/><stop stop-opacity="1" stop-color="rgb(95.957947%, 80.479431%, 41.641235%)" offset="0.285156"/><stop stop-opacity="1" stop-color="rgb(94.708252%, 79.173279%, 40.818787%)" offset="0.289063"/><stop stop-opacity="1" stop-color="rgb(93.457031%, 77.867126%, 39.994812%)" offset="0.292969"/><stop stop-opacity="1" stop-color="rgb(92.207336%, 76.560974%, 39.172363%)" offset="0.296875"/><stop stop-opacity="1" stop-color="rgb(90.956116%, 75.254822%, 38.349915%)" offset="0.300781"/><stop stop-opacity="1" stop-color="rgb(89.704895%, 73.948669%, 37.527466%)" offset="0.304688"/><stop stop-opacity="1" stop-color="rgb(88.453674%, 72.642517%, 36.703491%)" offset="0.308594"/><stop stop-opacity="1" stop-color="rgb(87.203979%, 71.336365%, 35.881042%)" offset="0.3125"/><stop stop-opacity="1" stop-color="rgb(85.952759%, 70.030212%, 35.058594%)" offset="0.316406"/><stop stop-opacity="1" stop-color="rgb(84.703064%, 68.72406%, 34.236145%)" offset="0.320313"/><stop stop-opacity="1" stop-color="rgb(83.451843%, 67.416382%, 33.41217%)" offset="0.324219"/><stop stop-opacity="1" stop-color="rgb(82.200623%, 66.110229%, 32.589722%)" offset="0.328125"/><stop stop-opacity="1" stop-color="rgb(80.949402%, 64.804077%, 31.767273%)" offset="0.332031"/><stop stop-opacity="1" stop-color="rgb(79.699707%, 63.497925%, 30.944824%)" offset="0.335938"/><stop stop-opacity="1" stop-color="rgb(78.448486%, 62.191772%, 30.12085%)" offset="0.339844"/><stop stop-opacity="1" stop-color="rgb(77.198792%, 60.88562%, 29.298401%)" offset="0.34375"/><stop stop-opacity="1" stop-color="rgb(75.947571%, 59.579468%, 28.475952%)" offset="0.347656"/><stop stop-opacity="1" stop-color="rgb(74.697876%, 58.273315%, 27.653503%)" offset="0.351563"/><stop stop-opacity="1" stop-color="rgb(73.446655%, 56.967163%, 26.829529%)" offset="0.355469"/><stop stop-opacity="1" stop-color="rgb(72.195435%, 55.661011%, 26.00708%)" offset="0.359375"/><stop stop-opacity="1" stop-color="rgb(70.944214%, 54.354858%, 25.184631%)" offset="0.363281"/><stop stop-opacity="1" stop-color="rgb(69.694519%, 53.048706%, 24.362183%)" offset="0.367188"/><stop stop-opacity="1" stop-color="rgb(68.443298%, 51.742554%, 23.538208%)" offset="0.371094"/><stop stop-opacity="1" stop-color="rgb(67.193604%, 50.436401%, 22.715759%)" offset="0.375"/><stop stop-opacity="1" stop-color="rgb(65.942383%, 49.130249%, 21.893311%)" offset="0.378906"/><stop stop-opacity="1" stop-color="rgb(64.691162%, 47.824097%, 21.070862%)" offset="0.382813"/><stop stop-opacity="1" stop-color="rgb(63.439941%, 46.517944%, 20.246887%)" offset="0.386719"/><stop stop-opacity="1" stop-color="rgb(62.190247%, 45.211792%, 19.424438%)" offset="0.390625"/><stop stop-opacity="1" stop-color="rgb(60.939026%, 43.90564%, 18.60199%)" offset="0.394531"/><stop stop-opacity="1" stop-color="rgb(59.689331%, 42.599487%, 17.779541%)" offset="0.398438"/><stop stop-opacity="1" stop-color="rgb(58.43811%, 41.293335%, 16.955566%)" offset="0.402344"/><stop stop-opacity="1" stop-color="rgb(57.188416%, 39.987183%, 16.133118%)" offset="0.40625"/><stop stop-opacity="1" stop-color="rgb(55.937195%, 38.68103%, 15.310669%)" offset="0.410156"/><stop stop-opacity="1" stop-color="rgb(54.685974%, 37.374878%, 14.48822%)" offset="0.414063"/><stop stop-opacity="1" stop-color="rgb(53.434753%, 36.0672%, 13.665771%)" offset="0.417969"/><stop stop-opacity="1" stop-color="rgb(52.185059%, 34.761047%, 12.843323%)" offset="0.421875"/><stop stop-opacity="1" stop-color="rgb(50.933838%, 33.454895%, 12.019348%)" offset="0.425781"/><stop stop-opacity="1" stop-color="rgb(49.684143%, 32.148743%, 11.196899%)" offset="0.429688"/><stop stop-opacity="1" stop-color="rgb(48.432922%, 30.84259%, 10.374451%)" offset="0.433594"/><stop stop-opacity="1" stop-color="rgb(47.181702%, 29.536438%, 9.552002%)" offset="0.4375"/><stop stop-opacity="1" stop-color="rgb(45.930481%, 28.230286%, 8.728027%)" offset="0.441406"/><stop stop-opacity="1" stop-color="rgb(44.680786%, 26.924133%, 7.905579%)" offset="0.445313"/><stop stop-opacity="1" stop-color="rgb(43.429565%, 25.617981%, 7.08313%)" offset="0.449219"/><stop stop-opacity="1" stop-color="rgb(42.179871%, 24.311829%, 6.260681%)" offset="0.453125"/><stop stop-opacity="1" stop-color="rgb(40.92865%, 23.005676%, 5.436707%)" offset="0.457031"/><stop stop-opacity="1" stop-color="rgb(39.678955%, 21.699524%, 4.614258%)" offset="0.460938"/><stop stop-opacity="1" stop-color="rgb(40.550232%, 22.610474%, 5.187988%)" offset="0.464844"/><stop stop-opacity="1" stop-color="rgb(41.423035%, 23.522949%, 5.763245%)" offset="0.46875"/><stop stop-opacity="1" stop-color="rgb(42.799377%, 24.958801%, 6.668091%)" offset="0.472656"/><stop stop-opacity="1" stop-color="rgb(44.17572%, 26.396179%, 7.572937%)" offset="0.476563"/><stop stop-opacity="1" stop-color="rgb(45.550537%, 27.832031%, 8.477783%)" offset="0.480469"/><stop stop-opacity="1" stop-color="rgb(46.92688%, 29.269409%, 9.382629%)" offset="0.484375"/><stop stop-opacity="1" stop-color="rgb(48.301697%, 30.706787%, 10.287476%)" offset="0.488281"/><stop stop-opacity="1" stop-color="rgb(49.67804%, 32.144165%, 11.193848%)" offset="0.492188"/><stop stop-opacity="1" stop-color="rgb(51.052856%, 33.580017%, 12.098694%)" offset="0.496094"/><stop stop-opacity="1" stop-color="rgb(52.429199%, 35.017395%, 13.00354%)" offset="0.5"/><stop stop-opacity="1" stop-color="rgb(53.804016%, 36.453247%, 13.908386%)" offset="0.503906"/><stop stop-opacity="1" stop-color="rgb(55.180359%, 37.890625%, 14.813232%)" offset="0.507812"/><stop stop-opacity="1" stop-color="rgb(56.556702%, 39.326477%, 15.718079%)" offset="0.511719"/><stop stop-opacity="1" stop-color="rgb(57.933044%, 40.763855%, 16.624451%)" offset="0.515625"/><stop stop-opacity="1" stop-color="rgb(59.307861%, 42.201233%, 17.529297%)" offset="0.519531"/><stop stop-opacity="1" stop-color="rgb(60.684204%, 43.638611%, 18.434143%)" offset="0.523438"/><stop stop-opacity="1" stop-color="rgb(62.059021%, 45.074463%, 19.338989%)" offset="0.527344"/><stop stop-opacity="1" stop-color="rgb(63.435364%, 46.511841%, 20.243835%)" offset="0.53125"/><stop stop-opacity="1" stop-color="rgb(64.810181%, 47.947693%, 21.148682%)" offset="0.535156"/><stop stop-opacity="1" stop-color="rgb(66.186523%, 49.385071%, 22.055054%)" offset="0.539062"/><stop stop-opacity="1" stop-color="rgb(67.562866%, 50.822449%, 22.9599%)" offset="0.542969"/><stop stop-opacity="1" stop-color="rgb(68.939209%, 52.259827%, 23.864746%)" offset="0.546875"/><stop stop-opacity="1" stop-color="rgb(70.314026%, 53.695679%, 24.769592%)" offset="0.550781"/><stop stop-opacity="1" stop-color="rgb(71.690369%, 55.133057%, 25.674438%)" offset="0.554688"/><stop stop-opacity="1" stop-color="rgb(73.065186%, 56.568909%, 26.579285%)" offset="0.558594"/><stop stop-opacity="1" stop-color="rgb(74.441528%, 58.006287%, 27.484131%)" offset="0.5625"/><stop stop-opacity="1" stop-color="rgb(75.816345%, 59.442139%, 28.388977%)" offset="0.566406"/><stop stop-opacity="1" stop-color="rgb(77.192688%, 60.879517%, 29.295349%)" offset="0.570312"/><stop stop-opacity="1" stop-color="rgb(78.567505%, 62.316895%, 30.200195%)" offset="0.574219"/><stop stop-opacity="1" stop-color="rgb(79.943848%, 63.754272%, 31.105042%)" offset="0.578125"/><stop stop-opacity="1" stop-color="rgb(81.32019%, 65.190125%, 32.009888%)" offset="0.582031"/><stop stop-opacity="1" stop-color="rgb(82.696533%, 66.627502%, 32.914734%)" offset="0.585938"/><stop stop-opacity="1" stop-color="rgb(84.07135%, 68.063354%, 33.81958%)" offset="0.589844"/><stop stop-opacity="1" stop-color="rgb(85.447693%, 69.500732%, 34.725952%)" offset="0.59375"/><stop stop-opacity="1" stop-color="rgb(86.82251%, 70.93811%, 35.630798%)" offset="0.597656"/><stop stop-opacity="1" stop-color="rgb(88.198853%, 72.375488%, 36.535645%)" offset="0.601562"/><stop stop-opacity="1" stop-color="rgb(89.573669%, 73.81134%, 37.440491%)" offset="0.605469"/><stop stop-opacity="1" stop-color="rgb(90.950012%, 75.248718%, 38.345337%)" offset="0.609375"/><stop stop-opacity="1" stop-color="rgb(92.324829%, 76.68457%, 39.250183%)" offset="0.613281"/><stop stop-opacity="1" stop-color="rgb(93.701172%, 78.121948%, 40.156555%)" offset="0.617188"/><stop stop-opacity="1" stop-color="rgb(95.077515%, 79.5578%, 41.061401%)" offset="0.621094"/><stop stop-opacity="1" stop-color="rgb(96.453857%, 80.995178%, 41.966248%)" offset="0.625"/><stop stop-opacity="1" stop-color="rgb(97.828674%, 82.432556%, 42.871094%)" offset="0.628906"/><stop stop-opacity="1" stop-color="rgb(99.205017%, 83.869934%, 43.77594%)" offset="0.632812"/><stop stop-opacity="1" stop-color="rgb(98.451233%, 83.082581%, 43.280029%)" offset="0.636719"/><stop stop-opacity="1" stop-color="rgb(97.697449%, 82.295227%, 42.784119%)" offset="0.640625"/><stop stop-opacity="1" stop-color="rgb(96.078491%, 80.604553%, 41.719055%)" offset="0.644531"/><stop stop-opacity="1" stop-color="rgb(94.459534%, 78.913879%, 40.655518%)" offset="0.648438"/><stop stop-opacity="1" stop-color="rgb(92.840576%, 77.223206%, 39.590454%)" offset="0.652344"/><stop stop-opacity="1" stop-color="rgb(91.223145%, 75.532532%, 38.525391%)" offset="0.65625"/><stop stop-opacity="1" stop-color="rgb(89.604187%, 73.841858%, 37.460327%)" offset="0.660156"/><stop stop-opacity="1" stop-color="rgb(87.985229%, 72.15271%, 36.395264%)" offset="0.664062"/><stop stop-opacity="1" stop-color="rgb(86.366272%, 70.462036%, 35.3302%)" offset="0.667969"/><stop stop-opacity="1" stop-color="rgb(84.74884%, 68.771362%, 34.266663%)" offset="0.671875"/><stop stop-opacity="1" stop-color="rgb(83.129883%, 67.080688%, 33.201599%)" offset="0.675781"/><stop stop-opacity="1" stop-color="rgb(81.512451%, 65.390015%, 32.136536%)" offset="0.679688"/><stop stop-opacity="1" stop-color="rgb(79.893494%, 63.699341%, 31.071472%)" offset="0.683594"/><stop stop-opacity="1" stop-color="rgb(78.274536%, 62.010193%, 30.006409%)" offset="0.6875"/><stop stop-opacity="1" stop-color="rgb(76.655579%, 60.319519%, 28.941345%)" offset="0.691406"/><stop stop-opacity="1" stop-color="rgb(75.038147%, 58.628845%, 27.877808%)" offset="0.695312"/><stop stop-opacity="1" stop-color="rgb(73.419189%, 56.938171%, 26.812744%)" offset="0.699219"/><stop stop-opacity="1" stop-color="rgb(71.800232%, 55.249023%, 25.747681%)" offset="0.703125"/><stop stop-opacity="1" stop-color="rgb(70.181274%, 53.55835%, 24.682617%)" offset="0.707031"/><stop stop-opacity="1" stop-color="rgb(68.563843%, 51.867676%, 23.617554%)" offset="0.710938"/><stop stop-opacity="1" stop-color="rgb(66.944885%, 50.177002%, 22.55249%)" offset="0.714844"/><stop stop-opacity="1" stop-color="rgb(65.325928%, 48.486328%, 21.488953%)" offset="0.71875"/><stop stop-opacity="1" stop-color="rgb(63.70697%, 46.795654%, 20.423889%)" offset="0.722656"/><stop stop-opacity="1" stop-color="rgb(62.089539%, 45.106506%, 19.358826%)" offset="0.726562"/><stop stop-opacity="1" stop-color="rgb(60.470581%, 43.415833%, 18.293762%)" offset="0.730469"/><stop stop-opacity="1" stop-color="rgb(58.853149%, 41.725159%, 17.228699%)" offset="0.734375"/><stop stop-opacity="1" stop-color="rgb(57.234192%, 40.034485%, 16.163635%)" offset="0.738281"/><stop stop-opacity="1" stop-color="rgb(55.615234%, 38.343811%, 15.100098%)" offset="0.742188"/><stop stop-opacity="1" stop-color="rgb(53.996277%, 36.653137%, 14.035034%)" offset="0.746094"/><stop stop-opacity="1" stop-color="rgb(52.378845%, 34.963989%, 12.969971%)" offset="0.75"/><stop stop-opacity="1" stop-color="rgb(50.759888%, 33.273315%, 11.904907%)" offset="0.753906"/><stop stop-opacity="1" stop-color="rgb(49.14093%, 31.582642%, 10.839844%)" offset="0.757812"/><stop stop-opacity="1" stop-color="rgb(47.521973%, 29.891968%, 9.77478%)" offset="0.761719"/><stop stop-opacity="1" stop-color="rgb(45.904541%, 28.20282%, 8.709717%)" offset="0.765625"/><stop stop-opacity="1" stop-color="rgb(44.285583%, 26.512146%, 7.644653%)" offset="0.769531"/><stop stop-opacity="1" stop-color="rgb(42.666626%, 24.821472%, 6.581116%)" offset="0.773438"/><stop stop-opacity="1" stop-color="rgb(41.047668%, 23.130798%, 5.516052%)" offset="0.777344"/><stop stop-opacity="1" stop-color="rgb(39.430237%, 21.440125%, 4.450989%)" offset="0.78125"/><stop stop-opacity="1" stop-color="rgb(40.591431%, 22.653198%, 5.215454%)" offset="0.785156"/><stop stop-opacity="1" stop-color="rgb(41.75415%, 23.867798%, 5.979919%)" offset="0.789062"/><stop stop-opacity="1" stop-color="rgb(43.128967%, 25.30365%, 6.884766%)" offset="0.792969"/><stop stop-opacity="1" stop-color="rgb(44.50531%, 26.741028%, 7.791138%)" offset="0.796875"/><stop stop-opacity="1" stop-color="rgb(45.881653%, 28.178406%, 8.695984%)" offset="0.800781"/><stop stop-opacity="1" stop-color="rgb(47.257996%, 29.615784%, 9.60083%)" offset="0.804688"/><stop stop-opacity="1" stop-color="rgb(48.632812%, 31.051636%, 10.505676%)" offset="0.808594"/><stop stop-opacity="1" stop-color="rgb(50.009155%, 32.489014%, 11.410522%)" offset="0.8125"/><stop stop-opacity="1" stop-color="rgb(51.383972%, 33.924866%, 12.315369%)" offset="0.816406"/><stop stop-opacity="1" stop-color="rgb(52.760315%, 35.362244%, 13.221741%)" offset="0.820312"/><stop stop-opacity="1" stop-color="rgb(54.135132%, 36.798096%, 14.126587%)" offset="0.824219"/><stop stop-opacity="1" stop-color="rgb(55.511475%, 38.235474%, 15.031433%)" offset="0.828125"/><stop stop-opacity="1" stop-color="rgb(56.886292%, 39.672852%, 15.936279%)" offset="0.832031"/><stop stop-opacity="1" stop-color="rgb(58.262634%, 41.110229%, 16.841125%)" offset="0.835938"/><stop stop-opacity="1" stop-color="rgb(59.638977%, 42.546082%, 17.745972%)" offset="0.839844"/><stop stop-opacity="1" stop-color="rgb(61.01532%, 43.983459%, 18.650818%)" offset="0.84375"/><stop stop-opacity="1" stop-color="rgb(62.390137%, 45.419312%, 19.555664%)" offset="0.847656"/><stop stop-opacity="1" stop-color="rgb(63.766479%, 46.856689%, 20.462036%)" offset="0.851562"/><stop stop-opacity="1" stop-color="rgb(65.141296%, 48.294067%, 21.366882%)" offset="0.855469"/><stop stop-opacity="1" stop-color="rgb(66.517639%, 49.731445%, 22.271729%)" offset="0.859375"/><stop stop-opacity="1" stop-color="rgb(67.892456%, 51.167297%, 23.176575%)" offset="0.863281"/><stop stop-opacity="1" stop-color="rgb(69.268799%, 52.604675%, 24.081421%)" offset="0.867188"/><stop stop-opacity="1" stop-color="rgb(70.643616%, 54.040527%, 24.986267%)" offset="0.871094"/><stop stop-opacity="1" stop-color="rgb(72.019958%, 55.477905%, 25.892639%)" offset="0.875"/><stop stop-opacity="1" stop-color="rgb(73.396301%, 56.913757%, 26.797485%)" offset="0.878906"/><stop stop-opacity="1" stop-color="rgb(74.772644%, 58.351135%, 27.702332%)" offset="0.882812"/><stop stop-opacity="1" stop-color="rgb(76.147461%, 59.788513%, 28.607178%)" offset="0.886719"/><stop stop-opacity="1" stop-color="rgb(77.523804%, 61.225891%, 29.512024%)" offset="0.890625"/><stop stop-opacity="1" stop-color="rgb(78.898621%, 62.661743%, 30.41687%)" offset="0.894531"/><stop stop-opacity="1" stop-color="rgb(80.274963%, 64.099121%, 31.323242%)" offset="0.898438"/><stop stop-opacity="1" stop-color="rgb(81.64978%, 65.534973%, 32.228088%)" offset="0.902344"/><stop stop-opacity="1" stop-color="rgb(83.026123%, 66.972351%, 33.132935%)" offset="0.90625"/><stop stop-opacity="1" stop-color="rgb(84.402466%, 68.409729%, 34.037781%)" offset="0.910156"/><stop stop-opacity="1" stop-color="rgb(85.778809%, 69.847107%, 34.942627%)" offset="0.914062"/><stop stop-opacity="1" stop-color="rgb(87.153625%, 71.282959%, 35.847473%)" offset="0.917969"/><stop stop-opacity="1" stop-color="rgb(88.529968%, 72.720337%, 36.753845%)" offset="0.921875"/><stop stop-opacity="1" stop-color="rgb(89.904785%, 74.156189%, 37.658691%)" offset="0.925781"/><stop stop-opacity="1" stop-color="rgb(91.281128%, 75.593567%, 38.563538%)" offset="0.929688"/><stop stop-opacity="1" stop-color="rgb(92.655945%, 77.029419%, 39.468384%)" offset="0.933594"/><stop stop-opacity="1" stop-color="rgb(94.032288%, 78.466797%, 40.37323%)" offset="0.9375"/><stop stop-opacity="1" stop-color="rgb(95.407104%, 79.904175%, 41.278076%)" offset="0.941406"/><stop stop-opacity="1" stop-color="rgb(96.783447%, 81.341553%, 42.184448%)" offset="0.945312"/><stop stop-opacity="1" stop-color="rgb(98.15979%, 82.777405%, 43.089294%)" offset="0.949219"/><stop stop-opacity="1" stop-color="rgb(99.536133%, 84.214783%, 43.994141%)" offset="0.953125"/><stop stop-opacity="1" stop-color="rgb(99.766541%, 84.455872%, 44.146729%)" offset="0.957031"/><stop stop-opacity="1" stop-color="rgb(99.998474%, 84.698486%, 44.299316%)" offset="0.960938"/><stop stop-opacity="1" stop-color="rgb(99.998474%, 84.698486%, 44.299316%)" offset="0.96875"/><stop stop-opacity="1" stop-color="rgb(99.998474%, 84.698486%, 44.299316%)" offset="1"/></linearGradient></defs><g clip-path="url(#5b8e5c14a6)"><g clip-path="url(#a1bd615245)"><g clip-path="url(#e7ebc30b97)"><g clip-path="url(#f297e1d60a)"><path fill="url(#9af54a5492)" d="M 260.550781 -23.359375 L -20.492188 119.550781 L 125.011719 405.703125 L 406.058594 262.792969 Z M 260.550781 -23.359375 " fill-rule="nonzero"/></g></g></g></g><g fill="#64360b" fill-opacity="1"><g transform="translate(165.372807, 106.497014)"><g><path d="M 4.941406 -4.207031 L 2.75 -3.851562 L 3.34375 -7.113281 Z M 8.71875 -1.421875 L 3.789062 -9.515625 L 2.171875 -9.253906 L 0.0625 -0.0117188 L 2.117188 -0.34375 L 2.457031 -2.191406 L 5.757812 -2.730469 L 6.667969 -1.085938 Z M 8.71875 -1.421875 "/></g></g></g><g fill="#64360b" fill-opacity="1"><g transform="translate(183.681337, 104.528244)"><g><path d="M 2.804688 -3.058594 L 4.160156 -3.019531 C 5.578125 -2.976562 6.875 -3.984375 6.925781 -5.765625 C 6.976562 -7.433594 5.742188 -8.617188 4.324219 -8.660156 L 2.96875 -8.699219 L 2.492188 -8.714844 L 1.03125 -8.757812 L 0.773438 0.0234375 L 2.710938 0.078125 Z M 3.957031 -7.144531 C 4.523438 -7.128906 5.105469 -6.621094 5.082031 -5.820312 C 5.054688 -4.980469 4.449219 -4.535156 3.878906 -4.550781 L 2.847656 -4.582031 L 2.921875 -7.175781 Z M 3.957031 -7.144531 "/></g></g></g><g fill="#64360b" fill-opacity="1"><g transform="translate(200.138674, 105.873659)"><g><path d="M 3.304688 -2.503906 L 4.632812 -2.222656 C 6.023438 -1.925781 7.476562 -2.6875 7.851562 -4.429688 C 8.195312 -6.058594 7.199219 -7.445312 5.808594 -7.742188 L 4.480469 -8.027344 L 4.015625 -8.125 L 2.585938 -8.429688 L 0.757812 0.160156 L 2.652344 0.566406 Z M 5.175781 -6.320312 C 5.730469 -6.203125 6.210938 -5.597656 6.042969 -4.8125 C 5.867188 -3.992188 5.191406 -3.660156 4.632812 -3.78125 L 3.625 -3.996094 L 4.164062 -6.535156 Z M 5.175781 -6.320312 "/></g></g></g><g fill="#64360b" fill-opacity="1"><g transform="translate(216.051789, 110.065565)"><g><path d="M 8.679688 -1.0625 C 8.144531 0.183594 6.527344 0.839844 5.28125 0.300781 C 4.035156 -0.234375 3.398438 -1.855469 3.933594 -3.101562 C 4.46875 -4.347656 6.082031 -4.992188 7.328125 -4.457031 C 8.574219 -3.921875 9.214844 -2.308594 8.679688 -1.0625 Z M 10.457031 -0.285156 C 11.414062 -2.515625 10.320312 -5.265625 8.085938 -6.222656 C 5.855469 -7.183594 3.109375 -6.085938 2.148438 -3.855469 C 1.191406 -1.625 2.285156 1.125 4.515625 2.082031 C 6.75 3.042969 9.496094 1.945312 10.457031 -0.285156 Z M 10.457031 -0.285156 "/></g></g></g><g fill="#64360b" fill-opacity="1"><g transform="translate(233.489489, 118.800418)"><g><path d="M 2.261719 1.496094 L 7.105469 -5.832031 L 5.488281 -6.898438 L 0.648438 0.425781 Z M 2.261719 1.496094 "/></g></g></g><g fill="#64360b" fill-opacity="1"><g transform="translate(244.075841, 126.526735)"><g><path d="M 5.589844 5.253906 L 11.605469 -1.144531 L 10.195312 -2.472656 L 6.441406 1.519531 L 7.992188 -4.542969 L 6.578125 -5.871094 L 0.566406 0.53125 L 1.976562 1.859375 L 5.726562 -2.132812 L 4.179688 3.925781 Z M 5.589844 5.253906 "/></g></g></g><g fill="#64360b" fill-opacity="1"><g transform="translate(256.492197, 139.518178)"><g><path d="M 8.335938 -0.476562 L 9.804688 1.554688 L 11.226562 0.523438 L 7.148438 -5.105469 L 5.726562 -4.074219 L 7.195312 -2.042969 L 1.507812 2.082031 L 2.644531 3.648438 Z M 8.335938 -0.476562 "/></g></g></g><g fill="#64360b" fill-opacity="1"><g transform="translate(265.538195, 153.489763)"><g><path d="M 4.121094 4.523438 L 2.757812 1.683594 L 4.351562 0.917969 L 5.660156 3.640625 L 7.246094 2.882812 L 5.9375 0.15625 L 7.507812 -0.597656 L 8.871094 2.242188 L 10.457031 1.484375 L 8.253906 -3.105469 L 0.335938 0.699219 L 2.539062 5.285156 Z M 4.121094 4.523438 "/></g></g></g><g fill="#64360b" fill-opacity="1"><g transform="translate(271.791612, 168.441025)"><g><path d="M 3.746094 1.785156 L 3.75 1.796875 L 1.277344 4.644531 L 1.925781 7.011719 L 4.371094 3.726562 C 4.929688 4.726562 6.109375 5.328125 7.542969 4.933594 C 9.148438 4.492188 9.921875 2.96875 9.546875 1.597656 L 9.1875 0.289062 L 9.0625 -0.171875 L 8.675781 -1.578125 L 0.207031 0.746094 L 0.71875 2.617188 Z M 7.992188 1.6875 C 8.140625 2.238281 7.828125 2.941406 7.054688 3.152344 C 6.246094 3.375 5.640625 2.925781 5.488281 2.378906 L 5.214844 1.378906 L 7.71875 0.691406 Z M 7.992188 1.6875 "/></g></g></g><g fill="#efd696" fill-opacity="1"><g transform="translate(136.667683, 237.567186)"><g><path d="M 59.566406 -106.105469 L 43.898438 -106.105469 L 9.460938 -8.066406 C 7.910156 -3.722656 4.964844 -1.085938 0 -1.242188 L 0 0 C 7.289062 0 18.613281 0 26.214844 0 L 26.214844 -1.242188 C 21.25 -1.085938 18.304688 -2.328125 16.753906 -6.824219 C 16.441406 -7.910156 15.976562 -9.152344 15.667969 -10.238281 C 14.738281 -12.875 14.890625 -15.203125 15.667969 -17.839844 L 18.925781 -26.527344 C 22.335938 -36.296875 34.902344 -31.023438 40.953125 -28.851562 C 53.363281 -24.820312 62.203125 -27.144531 67.632812 -38.625 L 78.183594 -8.6875 C 79.886719 -3.414062 77.40625 -1.085938 72.132812 -1.242188 L 72.132812 0 L 103.464844 0 L 103.464844 -1.242188 C 97.882812 -1.085938 95.246094 -3.878906 93.695312 -8.6875 Z M 66.703125 -41.726562 C 60.964844 -35.523438 53.050781 -39.402344 45.917969 -41.726562 C 35.679688 -45.140625 27.921875 -44.054688 22.492188 -37.074219 L 45.449219 -102.070312 Z M 66.703125 -41.726562 "/></g></g></g></svg>