<?xml version="1.0" encoding="UTF-8"?><svg xmlns="http://www.w3.org/2000/svg" xmlns:xlink="http://www.w3.org/1999/xlink" height="423.9" preserveAspectRatio="xMidYMid meet" version="1.0" viewBox="0.0 -0.0 223.6 423.9" width="223.6" zoomAndPan="magnify"><g id="change1_1"><path d="M184.353,56.623L184.353,56.623c-0.006-0.033-0.016-0.065-0.028-0.097c0,0-0.001-0.001-0.001-0.003v0 c-0.008-0.02-0.018-0.039-0.028-0.057l-19.166-34.127c-0.019-0.034-0.042-0.065-0.067-0.093c0,0-0.001-0.001-0.001-0.001 c0,0-0.001-0.001-0.001-0.001c-0.048-0.051-0.106-0.093-0.174-0.121c0,0,0,0,0,0c0,0,0,0-0.001,0c-0.001,0-0.002,0-0.002,0 c-0.007-0.003-0.014-0.005-0.021-0.008L104.317,0.035c-0.056-0.022-0.117-0.034-0.18-0.034c-0.03-0.004-0.059,0.002-0.087,0.008 c-0.091,0.016-0.172,0.056-0.238,0.112c-0.033,0.028-0.062,0.06-0.087,0.096c-0.056,0.082-0.088,0.18-0.088,0.283 c0,0.017,0.001,0.033,0.002,0.049c0,0,0,0.001,0,0.002c0,0.004,0.001,0.008,0.001,0.013l3.219,25.812L91.79,46.949 c-0.04,0.054-0.069,0.116-0.085,0.183c0,0,0,0.001,0,0.002v0c0,0,0,0.001,0,0.001c-0.004,0.016-0.007,0.032-0.009,0.048v0 c0,0,0,0.001,0,0.001c0,0,0,0,0,0.001c0,0.001,0,0.001,0,0.002v0c-0.002,0.014-0.003,0.028-0.003,0.043L90.55,79.58 c-0.002,0.038,0,0.077,0.008,0.115c0,0.001,0,0.001,0,0.002c0.001,0.001,0,0.002,0,0.002c0,0.001,0,0.002,0,0.002v0 c0.001,0.002,0.001,0.005,0.002,0.008c0,0.001,0,0.002,0,0.002c0,0.001,0,0.002,0,0.003c0.001,0.001,0,0.002,0.001,0.003 c0,0.002,0,0.002,0,0.003c0.021,0.09,0.067,0.169,0.128,0.232l33.098,34.408c0.098,0.102,0.229,0.153,0.36,0.153 c0.008,0,0.017,0,0.025,0l54.339-2.372c0.001,0,0.002-0.001,0.004,0c0,0,0.001-0.001,0.002,0c0.001,0,0.001,0,0.002,0 s0.001,0,0.002,0h0.001c0.108-0.007,0.206-0.048,0.284-0.112c0.032-0.027,0.061-0.057,0.085-0.091 c0.053-0.071,0.086-0.157,0.095-0.25c0.001-0.018,0.002-0.035,0.002-0.052l-0.063-40.652l5.398-14.087 c0.005-0.014,0.01-0.028,0.015-0.042c0,0,0,0,0,0c0-0.001,0-0.002,0.001-0.003C184.364,56.777,184.367,56.699,184.353,56.623 C184.354,56.624,184.353,56.624,184.353,56.623z M118.439,66.369l16.342-33.621l8.557,17.451L118.439,66.369z M143.322,51.401 l-2.508,16.7l-22.009-0.777L143.322,51.401z M137.546,79.717l-44.244-0.582l23.877-10.808L137.546,79.717z M119.25,68.34 l21.415,0.755l-1.556,10.358L119.25,68.34z M141.67,69.13l25.652,0.904l-27.209,9.464L141.67,69.13z M141.82,68.136l2.533-16.863 l24.057,17.802L141.82,68.136z M144.07,49.421l-8.583-17.504l27.899-8.416L144.07,49.421z M163.11,22.539l-28.187,8.503 L106.05,1.731L163.11,22.539z M104.815,1.903l28.491,28.922l-25.476-4.738L104.815,1.903z M107.598,27.06l25.299,4.706 l-39.323,14.44L107.598,27.06z M133.787,32.505L117.03,66.979L93.185,47.414L133.787,32.505z M92.656,48.274l23.608,19.37 L91.578,78.817L92.656,48.274z M123.999,113.138L92.24,80.121l46.484,0.612L123.999,113.138z M124.942,113.48l14.743-32.443 l37.462,30.165L124.942,113.48z M140.504,80.421l29.122-10.13l8.102,40.095L140.504,80.421z M170.634,70.231l7.296,1.093 l0.055,35.282L170.634,70.231z M178.106,70.34l-7.007-1.047l11.522-10.737L178.106,70.34z M169.966,68.982l-24.042-17.791 l36.848,5.858L169.966,68.982z M144.877,50.012L164.634,23.5L182.92,56.06L144.877,50.012z" fill="#808285"/></g><g id="change2_1"><path d="M164.738,368.045c-0.009-0.034-0.021-0.068-0.038-0.101c-0.026-0.051-0.06-0.096-0.099-0.134l-58.991-58.927 c-0.006-0.006-0.012-0.012-0.018-0.018c-0.001-0.001-0.001-0.003-0.003-0.003h0c-0.08-0.072-0.18-0.115-0.283-0.125l-45.261-4.904 c-0.033-0.005-0.065-0.007-0.1-0.002c0,0,0,0-0.001,0c0,0,0,0,0,0c-0.042,0.003-0.082,0.012-0.121,0.024 c0,0.001-0.001,0.001-0.001,0.001c0,0-0.001,0-0.001,0c-0.072,0.025-0.139,0.067-0.194,0.124c0,0,0,0-0.001,0v0.001 c-0.013,0.013-0.025,0.027-0.037,0.042L49.12,317.411L9.254,337.932c-0.012,0.006-0.024,0.013-0.036,0.02 c-0.084,0.052-0.149,0.125-0.189,0.209c-0.016,0.032-0.028,0.066-0.036,0.103h0c0,0.001,0,0.001,0,0.002 c-0.023,0.1-0.017,0.207,0.026,0.308c0,0,0,0,0,0.001c0,0,0,0,0,0.001c0.003,0.008,0.007,0.017,0.012,0.024l31.204,64.128 c0.001,0.002,0.002,0.004,0.003,0.006c0.006,0.011,0.001,0.002,0.001,0.002c0.05,0.1,0.134,0.183,0.243,0.23 c0.009,0.004,0.018,0.008,0.026,0.011l54.134,20.895c0.008,0.003,0.015,0.005,0.023,0.008c0,0,0,0,0,0c0.001,0,0.001,0,0.004,0.001 c0,0.002,0.001,0.001,0.003,0.001c0,0,0,0,0,0.001c0.048,0.015,0.099,0.022,0.15,0.022s0.103-0.008,0.154-0.024 c0.036-0.012,0.069-0.026,0.101-0.045l30.992-17.712c0.01-0.006,0.02-0.012,0.03-0.019c0,0,0,0,0,0c0.001,0,0.002-0.002,0.003-0.002 c0,0,0.001,0.001,0.002-0.002h0c0.012-0.009,0.024-0.018,0.036-0.026c0-0.001,0-0.001,0-0.001c0,0,0,0,0.001-0.001 c0.001-0.001,0.001-0.001,0.002-0.001c0.001,0,0.001-0.002,0.001-0.002c0.045-0.037,0.082-0.082,0.11-0.131c0,0,0,0,0,0 c0-0.001,0-0.001,0.001-0.002c0,0,0,0,0-0.001c0,0,0.001-0.002,0.001-0.002c0,0,0,0,0-0.001c0.012-0.021,0.021-0.041,0.03-0.063 l10.862-27.877l27.265-9.346c0.005-0.002,0.011-0.004,0.016-0.006h0c0,0,0,0,0,0c0.111-0.043,0.2-0.121,0.255-0.218 c0.023-0.041,0.041-0.084,0.052-0.129c0.01-0.039,0.015-0.08,0.015-0.121C164.755,368.13,164.75,368.087,164.738,368.045z M162.178,366.804l-46.883-18.725l-9.128-37.227L162.178,366.804z M114.226,347.917l-22.711-1.084l13.638-35.918L114.226,347.917z M113.987,348.907l-23.18,36.46l0.489-37.542L113.987,348.907z M104.558,309.664l-13.892,36.588l-29.623-41.304L104.558,309.664z M73.971,359.582l-9.336,7.162l-7.625-36.841L73.971,359.582z M57.238,328.293l32.669,19.063l-15.137,11.612L57.238,328.293z M74.471,360.458l14.18,24.812l-23.522-17.645L74.471,360.458z M75.271,359.845l15.019-11.521l-0.481,36.955L75.271,359.845z M60.266,305.581l28.765,40.106l-32.594-19.019L60.266,305.581z M59.131,306.234l-3.528,19.427l-5.534-7.84L59.131,306.234z M49.288,318.449l5.765,8.164l-41.552,10.258L49.288,318.449z M55.498,327.534l8.103,39.149l-52.735-28.132L55.498,327.534z M10.603,339.544l52.981,28.257l-22.829,33.71L10.603,339.544z M41.451,402.268l22.81-33.683l29.467,53.86L41.451,402.268z M65.854,369.413l23.96,17.98L94,420.859L65.854,369.413z M95.225,422.597l-4.326-34.592l33.882,17.701L95.225,422.597z M90.998,386.929l23.618-37.148l10.521,54.984L90.998,386.929z M125.987,403.887l-10.22-53.413l20.435,27.198L125.987,403.887z M136.95,377.003l-20.608-27.429l46.475,18.562L136.95,377.003z" fill="#FFF"/></g><g id="change3_1"><path d="M170.24,109.432c-0.013-0.084-0.048-0.167-0.105-0.237c-0.017-0.021-0.035-0.04-0.055-0.058 c0,0,0-0.001-0.001-0.001c-0.049-0.043-0.104-0.075-0.163-0.096L90.879,78.931c-0.012-0.005-0.024-0.009-0.036-0.013c0,0,0,0,0,0 c-0.002,0-0.002-0.001-0.003-0.001c0,0,0,0,0,0c-0.075-0.022-0.152-0.026-0.229-0.013c0,0-0.001,0-0.002,0s-0.001,0-0.002,0 c0,0,0,0-0.001,0c-0.001,0-0.002,0-0.003,0c-0.001-0.001-0.002,0-0.003,0.001h0c0,0-0.001,0-0.001,0c-0.001,0-0.002,0-0.003,0 c-0.001,0-0.003,0.001-0.005,0.001c-0.004,0.001-0.009,0.002-0.013,0.003h0c-0.002,0.001-0.003,0.001-0.005,0.001 c-0.001,0-0.002,0-0.003,0c-0.002,0.001-0.002,0.001-0.003,0.001c-0.001,0-0.002,0-0.002,0.001h0c-0.001,0-0.001,0-0.002,0 c0,0,0,0,0,0c-0.01,0.003-0.02,0.006-0.03,0.01L42.195,96.32c-0.024,0.008-0.047,0.018-0.069,0.03l0,0c0,0-0.001,0-0.001,0 c-0.025,0.013-0.049,0.029-0.071,0.045c0,0,0,0,0,0c0,0-0.001,0-0.001,0.001c0,0-0.001,0.001-0.001,0.001 c-0.059,0.046-0.108,0.106-0.143,0.177c0,0,0,0,0,0c0,0,0,0.001,0,0.001c-0.008,0.016-0.015,0.033-0.021,0.049l-6.756,18.641 l-35.004,40.3c-0.013,0.014-0.024,0.029-0.036,0.045c-0.053,0.076-0.083,0.163-0.089,0.251c0,0.001,0,0.001,0,0.002 c-0.002,0.038,0,0.076,0.005,0.113c0.016,0.097,0.06,0.189,0.131,0.265c0,0,0,0,0.001,0.001c0,0,0,0,0,0 c0.006,0.006,0.012,0.012,0.018,0.017l51.874,49.032c0.091,0.087,0.213,0.14,0.346,0.14c0.01,0,0.02,0,0.03-0.001c0,0,0,0,0.001,0 c0,0,0.002,0,0.003,0h0c0.004,0,0.008-0.001,0.011-0.001l62.395-5.704c0.092-0.008,0.183-0.041,0.261-0.101 c0.003,0.001,0.001-0.001,0.001-0.001c0,0,0.001-0.001,0.002-0.001v-0.001c0,0,0.001-0.001,0.002-0.001 c0.032-0.025,0.061-0.055,0.084-0.085l26.66-33.079c0.022-0.027,0.041-0.057,0.057-0.087c0,0,0,0,0,0 c-0.001-0.001,0.001-0.002,0.001-0.002c0-0.001,0-0.002,0.001-0.003c0.029-0.059,0.046-0.121,0.05-0.185l2.728-33.417l25.415-22.885 c0.091-0.082,0.145-0.189,0.161-0.302c0,0,0-0.001,0-0.002C170.249,109.528,170.248,109.479,170.24,109.432z M167.495,109.187 l-54.61,4.338L91.923,80.398L167.495,109.187z M91.085,80.944l20.802,32.873l-23.958,10.165L91.085,80.944z M74.296,144.472 l-27.719-22.338l39.927,3.064L74.296,144.472z M87.199,125.968l10.878,37.668L75.08,145.103L87.199,125.968z M73.758,145.321 l-7.574,11.958L46.78,123.578L73.758,145.321z M74.542,145.952l22.534,18.161l-30.106-6.205L74.542,145.952z M98.649,165.458 l14.732,31.942l-45.389-38.267L98.649,165.458z M87.974,125.049l23.902-10.142l-12.898,48.246L87.974,125.049z M90.142,80.127 l-3.209,43.774L43.5,96.913L90.142,80.127z M85.369,124.107l-39.903-3.062l-2.502-23.287L85.369,124.107z M42.092,98.995 l2.314,21.54l-8.23-5.217L42.092,98.995z M35.665,116.178l8.481,5.373L4.181,152.424L35.665,116.178z M44.866,122.257l20.414,35.457 L1.901,155.45L44.866,122.257z M52.128,204.012L1.807,156.447l63.697,2.269L52.128,204.012z M53.065,204.37l13.361-45.248 l47.112,39.721L53.065,204.37z M114.892,198.289l-15.104-32.749l40.628,1.079L114.892,198.289z M99.644,164.537l13.143-49.163 l27.792,50.249L99.644,164.537z M141.076,164.456l-27.133-49.057l29.718,17.401L141.076,164.456z M144.122,131.912L114.25,114.42 l54.067-4.295L144.122,131.912z" fill="#A7A9AC"/></g><g id="change4_1"><path d="M223.536,177.943C223.536,177.942,223.536,177.942,223.536,177.943c-0.038-0.075-0.093-0.14-0.165-0.188 c-0.016-0.011-0.033-0.021-0.05-0.03l-63.079-33.667c-0.025-0.014-0.052-0.026-0.079-0.036c0,0,0,0-0.001,0 c-0.015-0.005-0.03-0.01-0.045-0.013c0,0,0,0,0,0c0,0,0,0,0,0c-0.107-0.026-0.225-0.016-0.332,0.036c0,0,0,0,0,0 c0,0-0.001,0-0.001,0c-0.007,0.003-0.014,0.007-0.021,0.011l-62.526,33.6c-0.053,0.028-0.102,0.066-0.144,0.113 c0,0.001-0.001,0.001-0.001,0.002c0,0,0,0-0.001,0.001c0,0-0.001,0-0.001,0.002h0c-0.005,0.006-0.01,0.013-0.015,0.019 c0,0.001-0.001,0.001-0.001,0.002c-0.001,0,0,0.002-0.002,0.002l0,0.001c0,0,0,0.001,0,0.001c0,0.001-0.001,0.001-0.001,0.002 c-0.026,0.035-0.047,0.073-0.063,0.112l-20.392,49.462c-0.01,0.023-0.018,0.047-0.024,0.072c-0.014,0.057-0.019,0.114-0.013,0.171 c0,0.001,0,0.001,0,0.002c0,0,0,0,0,0l4.121,39.545L59.43,304.481c-0.001,0.003-0.002,0.005-0.004,0.007l0,0.001l0,0.001 c-0.042,0.076-0.062,0.158-0.062,0.238c0,0.047,0.006,0.094,0.019,0.139c0,0.001,0,0.002,0,0.002c0,0.001,0,0.001,0,0.001 c0,0.001,0,0.001,0,0.002c0,0,0,0.001,0,0.002c0.007,0.024,0.016,0.048,0.027,0.07c0.04,0.084,0.103,0.157,0.187,0.21h0 c0,0,0.001,0.001,0.001,0.001c0.018,0.011,0.036,0.021,0.055,0.029c0.069,0.032,0.14,0.053,0.216,0.046l86.916,0.208 c0.001,0,0.003,0,0.004,0c0.013,0,0.031-0.004,0.038-0.001c0.001-0.003,0.003-0.002,0.004-0.001 c0.043-0.004,0.086-0.013,0.126-0.027c0.001,0,0.001-0.001,0.002-0.001c0.059-0.021,0.114-0.054,0.162-0.097l45.764-40.898 c0.021-0.02,0.041-0.04,0.058-0.062c0,0,0.001,0.001,0.001-0.002c0,0,0-0.001,0.001-0.001c0.054-0.069,0.091-0.153,0.103-0.246 l3.055-24.332l27.438-61.394c0.008-0.019,0.015-0.037,0.021-0.056c0.029-0.091,0.031-0.186,0.009-0.274 C223.566,178.01,223.553,177.976,223.536,177.943z M159.433,145.367l-4.317,57.852l-56.514-25.163L159.433,145.367z M120.861,209.896l-21.915-30.593l54.941,24.463L120.861,209.896z M154.841,204.598l-5.333,17.209l-27.114-11.179L154.841,204.598z M121.038,212.39l19.176,39.029l-22.396,22.073L121.038,212.39z M121.671,211.412l27.54,11.353l-8.495,27.41L121.671,211.412z M150.14,223.147l33.175,13.675l-41.727,13.919L150.14,223.147z M150.437,222.19l5.34-17.229l27.154,30.626L150.437,222.19z M97.586,179.122l22.273,31.094l-41.877,16.457L97.586,179.122z M120.1,211.195l-3.283,62.278l-38.91-45.697L120.1,211.195z M77.737,229.119l38.188,44.849l-34.254-7.11L77.737,229.119z M81.465,267.835l34.313,7.123l-54.637,28.54L81.465,267.835z M61.891,304.235l55.261-28.866l28.446,29.066L61.891,304.235z M117.956,274.76l22.483-22.158l5.693,50.948L117.956,274.76z M147.18,303.919l-5.782-51.742l50.113,12.124L147.18,303.919z M142.631,251.447l41.772-13.934l7.433,25.838L142.631,251.447z M192.362,261.561l-6.901-23.988l9.607,2.438L192.362,261.561z M195.335,239.046l-9.796-2.481l34.524-52.849L195.335,239.046z M184.679,236.051l-28.264-31.878l65.413-24.988L184.679,236.051z M156.118,203.225l4.323-57.928l61.446,32.795L156.118,203.225z" fill="#D1D3D4"/></g></svg>